<?xml version="1.0" encoding="utf-8"?>
<!-- Generator: Adobe Illustrator 20.0.0, SVG Export Plug-In . SVG Version: 6.00 Build 0)  -->
<!DOCTYPE svg PUBLIC "-//W3C//DTD SVG 1.1//EN" "http://www.w3.org/Graphics/SVG/1.1/DTD/svg11.dtd">
<svg version="1.1" id="Layer_1" xmlns="http://www.w3.org/2000/svg" xmlns:xlink="http://www.w3.org/1999/xlink" x="0px" y="0px"
	 viewBox="0 0 612 398.7" style="enable-background:new 0 0 612 398.7;" xml:space="preserve">
<style type="text/css">
	.st0{fill:url(#SVGID_1_);}
</style>
<linearGradient id="SVGID_1_" gradientUnits="userSpaceOnUse" x1="5.2789" y1="199.5628" x2="605.9028" y2="199.5628">
	<stop  offset="0" style="stop-color:#FFCD74"/>
	<stop  offset="0.4137" style="stop-color:#F15A29"/>
	<stop  offset="0.6623" style="stop-color:#EE252E"/>
	<stop  offset="1" style="stop-color:#EF5AA0"/>
</linearGradient>
<path class="st0" d="M496.6,374.7c-0.1,0.1-0.1,0.3-0.2,0.4c-0.1,0-0.2,0.1-0.2,0.2c-1.9,1.5-3.9,2.9-5.7,4.5
	c-2.9,2.5-6.8,3.1-10.1,5c3.8-2.2,7.5-4.5,10.9-7.4c2.7-2.2,5.2-4.6,7.2-7.5c5-5.8,8.1-12.6,10.5-19.8c0.1-0.4,0.3-0.9-0.2-1.1
	c-0.6-0.3-1.3-0.1-1.8,0.4c-0.3,0.3-0.4,0.8-0.6,1.2c-0.9,2.5-1.8,4.9-2.9,7.3c-2,4.4-4.7,8.4-7.5,12.3c-3.3,3.5-6.5,6.9-10.5,9.6
	c-3.2,2.1-6.4,4.1-10.1,5.3c14.6-6.9,24.3-18,29.8-33.4c-12.2,14.8-26.9,25.5-44.3,32.4c-0.1-0.2-0.2-0.3-0.3-0.5
	c0.8-0.3,1.6-0.6,2.4-0.9c0.7-0.3,1.6-0.4,2.5-1.5c-3.4,0.6-6.1,2.4-9.2,2.4c0.2-0.1,0.4-0.2,0.6-0.3c11.5-3.3,21-9.9,30.3-17.1
	c0.4-0.3,0.9-0.7,1-1.3c-3.7,3.1-7.8,5.7-11.7,8.4c-6.6,4.4-13.7,7.8-21.2,10.2c-2.1,0.3-4.2,0.9-6.6,0.5c0.6-0.7,1.3-0.7,1.9-0.8
	c6.6-0.6,12.4-3.5,17.9-6.8c6.2-3.7,12-7.8,17.5-12.4c0.5-0.4,1.1-0.8,1.6-1.9c-0.7,0.6-1.2,1-1.7,1.4c-7.3,6.2-15.2,11.7-23.9,15.8
	c-4.3,2-8.8,3.3-13.5,3.8c-2,0.2-4-0.3-6.1-0.2c5.5-1.4,10.9-2.6,15.7-5.9c-5.4,2.2-10.8,4.6-17.2,4.6c18.9-3.9,33-14.4,45.2-28.6
	c-1.5-0.3-2.4,0-3.1,1c-1.8,2.4-3.7,4.6-6,6.5c-4.8,4-10.3,6.5-16.5,7.8c-5.5,1.2-11.1,2.1-16.7,2.7c-0.3,0-0.7,0.2-1.1-0.3
	c4.2-0.7,8.2-1.5,12.2-2.2c-6.8,0.8-13.5,1.9-20.3,2.2c1.6-0.3,3.2-0.6,4.7-0.8c7.6-1.1,15.2-2.2,22.3-5.3c4.7-2,8.7-5.1,12.1-8.9
	c0.2-0.3,0.4-0.5,0.6-0.8c0.1-0.1,0-0.2,0.1-0.6c-4.2,1.1-8.5,0.8-12.2,3.5c-6.5,4.8-13.8,8-21.8,9.8c-0.7,0.2-1.5,0.3-2.2,0.4
	c-0.2,0-0.3,0-0.5-0.2c1.4-0.3,2.7-0.7,4.1-1c-4.1,0.5-8.1,1.7-12.3,1.4c9.9-1,18.9-4.5,27-10.2c-1.9,0.5-3.9-0.3-5.7,1
	c0-0.2-0.1-0.3-0.1-0.5c1.9-1,3.8-2,5.9-3.1c-1.1-0.8-2,0.2-2.9-0.5c1.5-1,3.3-1.1,4.8-1.8c-3.5,0.4-6.8,1.4-10.1,2.2
	c1.2-0.9,2.7-1.1,4.1-1.5c3.9-1.1,7.9-1.9,11.9-2.6c0.9-0.1,1.5-0.4,2.1-1c6.9-6.3,13.1-13.3,18.5-21c1.8-2.6,3.6-5.2,5.5-7.9
	c-2.9,2.2-5.8,4.4-8.7,6.6c-16.6,12.9-34.2,24.3-53.2,33.3c-1,0.5-2.3,1.7-3.5,0.1c-0.1-0.1-0.7,0.2-1.1,0.3c-2.2,1-4.5,1.9-7,3.1
	c0.4-0.9,0.9-0.9,1.4-1.1c16.6-7.3,32.3-16.3,47-26.8c1.5-1.1,2.1-3.1,3.7-4.1c-5.4,4-11,7.8-16.6,11.4c-5.8,3.7-11.7,7.2-17.7,10.4
	c-6,3.2-12.1,6.2-18.5,8.6c10.6-5,21.1-10.5,31-16.8c-6.4,3.7-12.8,7.4-19.5,10.7c-6.7,3.3-13.5,6.4-20.6,8.8
	c2.7-1.2,5.4-2.4,8.1-3.6c16.4-7.2,31.9-16.2,46.4-26.7c3.1-2.3,5.9-5,8.8-7.6c0.2-0.2,0.3-0.5,0.4-0.7c0.7,0,1.2-0.4,1.7-0.8
	c2.9-2.3,5.8-4.6,8.8-6.8c2.4-1.8,5-3.5,7.4-5.3c-2.4,0.9-4.4,2.3-6.5,3.7c-3.6,2.5-6.8,5.6-10.3,8.2c1.1-1.9,3-3,4.5-4.5
	c0.7-0.7,1.5-1.2,2.1-2c-8.3,5-15.7,11.2-23.3,17.2c-0.1-0.2-0.2-0.3-0.2-0.3c0-0.8,0.6-1.8-0.1-2.3c-0.8-0.4-1.3,0.6-1.9,1.1
	c-7.1,5.6-14.2,11.3-22.1,15.8c-7,4-14.4,6.7-22.3,8.1c-2.5,0.4-5.2,0.3-7.8,0.1c-5.3-0.5-10.5-1.9-15.8-2.5c0.7,0,1.3,0,2,0.1
	c-3.1-1.8-6.8-1.6-9.9-3.2c0.4-0.9,1.1-0.4,1.6-0.9c-3,0.3-5.5-1-8.1-2.1c0.3,0,0.7,0,1,0.1c0.4,0,0.8,0.1,1.2,0.1
	c0.4,0.2,0.9,0.4,1.3,0.5c8.5,1.9,16.9,1.6,25.3-0.9c10.3-3,18.9-9,27.3-15.4c0.2-0.2,0.4-0.4,0.6-0.6c0.2-0.2,0.3-0.5,0-0.8
	c-0.1-0.1-0.5-0.1-0.6,0c-0.3,0.2-0.6,0.5-1,0.7c-6.4,4.9-13,9.4-20.3,12.7c-7.3,3.3-14.9,5.3-23.1,4.8c-3.2-0.2-6.3-0.8-9.5-1.1
	c-0.6-0.3-1.1-0.6-1.7-0.9c2.5,0.1,4.9,0.7,7.4,0.9c7.5,0.5,14.7-0.8,21.7-3.5c8.2-3.2,15.3-8,22.2-13.3c1.9-1.5,3.9-2.8,5.5-4.7
	c-1.4,0.6-2.9,1.1-4.1,2.1c-3.3,2.7-6.7,5.2-10.3,7.5c-7.9,5.2-16.3,9.5-25.8,11c-3.7,0.6-7.5,1-11.2,0.2c-1.7-0.4-3.5-0.6-5.3-0.2
	c-2.3,0-4.1-1.4-6.2-2c2.7,0.5,5.5,0.9,8.2,1.2c10,1.2,19.4-1,28.4-5.3c8.8-4.3,16.6-10.2,24.1-16.5c-1.3,1.2-3.1,1.2-4.4,2.3
	c-1.3,1.1-2.7,2.2-4.1,3.2c-8,5.9-16.3,11.2-25.9,14.1c-4.4,1.3-9,2.3-13.5,2.1c-5.4-0.2-10.9-1-16.1-2.7c-0.4-0.1-0.8-0.2-1-0.9
	c3.7,0.6,7.4,1,11.1,1.1c5.3,0.2,10.3-0.6,15.4-2.3c10.7-3.5,19.8-9.7,28.5-16.5c1.5-1.2,3.2-2.1,4.4-3.7c-3,2.3-6.5,3.7-9.6,6.1
	c-8.7,6.6-18,12.2-28.8,14.6c-5.2,1.2-10.5,1.1-15.8,0.8c-4.6-0.3-9.1-0.7-13.5-2.2c-0.3-0.1-0.7-0.1-0.9-0.6
	c0.8-0.3,1.5,0.5,2.3,0.2c-0.7-1-2.1-1.1-2.9-1.9c2.6,0.3,5.1,0.9,7.6,1.3c6.8,1.1,13.5,0.5,20.2-1.3c9.9-2.7,18.5-8,26.6-14.1
	c4-3.1,7.9-6.3,11.8-9.5c0.3-0.3,0.8-0.4,0.9-1.1c-0.8,0.4-1.5,0.8-2.5,1.2c0.2-0.5,0.3-0.7,0.5-1.2c-0.6,0.3-1.1,0.6-1.5,0.8
	c-9.7,5.7-20,9.8-31.2,11.4c-8.2,1.2-16.4,0.6-24.6-0.9c-6.6-1.2-12.8-3.4-18.6-6.6c-1-0.5-2-0.9-3-1.3c0.4-1,1.2-0.7,2-0.5
	c6.5,2,13.2,3.4,20,3.7c2.7,0.1,5.4,0,8.1-0.2c-3.7-0.3-7.5,0.2-11.3-0.5c0.3-0.7,0.9-0.5,1.2-0.5c19.1,1.7,35.9-4.3,51.6-14.6
	c5-3.3,10-6.6,15-10c-1.9-0.4-4.7,0.2-7.3,1.6c-2.2,1.2-4.4,2.3-6.5,3.5c-0.1-0.1-0.1-0.3-0.2-0.4c2.3-1.3,4.6-2.5,6.8-3.8
	c0-0.1-0.1-0.2-0.1-0.3c-1.3,0-2.6,0-3.9,0.1c-10.3,0.1-20.5-1.5-30.5-4c-3.1-0.8-6.2-1.6-9.2-2.5c-1-0.3-1.8,0.1-2.6,0.5
	c-9.1,4.6-18.3,9.1-27.8,12.9c-11.2,4.4-22.6,7.9-34.6,9.3c-10.3,1.2-20.4,0.6-30.4-2.3c0.5-0.5,1-0.1,1.4-0.2
	c0.4,0.1,0.7,0.3,1.1,0.4c8.8,1.9,17.7,2.4,26.7,1.5c15.1-1.6,29.2-6.5,43-12.5c0.3-0.1,0.9-0.2,0.7-0.8c-0.9-0.1-1.7,0.5-2.4,0.8
	c-9.5,4.2-19.3,7.7-29.5,10c-9.1,2.1-18.2,3.1-27.5,2.3c-4.1-0.3-8.1-1.1-12.1-1.7c-1.4-0.7-3-0.5-4.6-1c-4.8-1.5-9.5-3.3-13.7-6.2
	c-3.4-2.3-7.5-3.5-11-5.6c-0.7-0.4-1.4-0.7-2.3-1.7c3.3,1.2,5.9,3,8.9,3.7c-4.8-3.4-11-4.5-15.2-9c2.3,0.8,4.4,2,7.1,3
	c-0.7-0.6-1.1-0.8-1.5-1.1c3,0.6,5.6,2.1,8.6,2.9c9,2.6,18.2,3.5,27.6,2.8c11-0.8,21.5-3.5,31.8-7.2c4.9-1.7,9.6-3.7,14.4-5.8
	c0.4-0.2,1.1-0.2,0.8-0.9c-0.2-0.6-0.8-0.2-1.2-0.1c-1.3,0.4-2.6,0.8-3.9,1.2c5-2.6,10.1-4.8,15.2-7.5c-1.1-0.6-1.8-1.1-2.8-0.7
	c-6.9,2.8-13.9,5.3-20.9,7.6c-6.8,2.3-13.4,5-20.3,6.8c-10.8,2.8-21.7,4.4-32.9,3.4c-5.3-0.5-10.4-1.6-15.5-3
	c-0.3-0.1-1-0.8-0.7,0.3c-4.5-2.3-9.4-3.8-13.6-6.8c7.9,3.8,16,6.7,24.7,7.6c0.4,0.1,0.9,0.3,1.3,0.3c7,0.2,14,0.7,21-0.3
	c4.1-0.6,8.1-1.2,12.1-2.4c-11.4,1.5-22.9,2.6-34.4,2.4c-2.9-1-6-1.1-9-2.1c-1.4-0.5-2.8-0.9-4.1-1.5c10.2,3.1,20.7,3.5,31.2,2.3
	c-11.9-0.6-23.9-1.4-35.6-3.9c0.2-1,1-0.6,1.2-1.2c-1.6-0.7-3.4-0.5-5.4-1.8c4,0.5,7.6,1.4,11,1.3c-4.5-1.6-9.5-2.1-14.3-3.5
	c1.1,0.1,2.1,0.2,3.7,0.3c-1.7-0.7-3-1.1-4.2-1.7c-1.1-0.6-2.6,0.2-3.3-1.8c-0.4-1.1-2.5-1-3.7-1.7c7.7,1.2,15.3,1.8,23-0.2
	c-0.5-1.1-1.4-1.1-2.2-1.1c-6-0.1-12.1,0.5-18.1-0.4c-1.6-0.2-3.1-0.6-4.7-1.2c2.3,0.4,4.6,0.5,6.9,0.7c4.6,0.5,9.2,0.5,13.7-0.6
	c0.5-0.1,1.5,0.2,1.4-0.8c-0.1-0.7-0.9-0.6-1.6-0.6c-3.1,0.4-6.2,0.8-9.3,1c-4.8,0.4-9.6-0.2-14.2-1.6c1.4,0.1,2.8,0.1,4.2,0.3
	c6,0.9,11.9,0.7,17.8-0.6c0.5-0.1,1.5,0,1.3-0.8c-0.2-0.7-1-0.3-1.5-0.2c-1.8,0.3-3.6,1.1-5.3,1c-4.2-0.4-8.4,0.2-12.6-0.1
	c-2.7-0.2-5.1-1.1-7.7-1.8c6.1,0.9,12.2,1.5,18.3,0.3c-4-0.2-8,0.3-12-0.5c1.2,0.1,2.4,0.2,3.6,0.3c-3.9-0.8-7.9-0.6-11.6-2.1
	c5.1,0.4,10.2,1.5,15.3,0.6c0.6,0,1.3,0,1.9-0.1c8.3-0.8,15.8-4,22.7-8.6c0.8-0.5,1.6-1.1,2.8-2c-1.1,0.1-1.5,0.6-2,1
	c-4.7,3.3-9.7,5.9-15.2,7.6c-3.3,1-6.8,1.4-10.2,2.1c-5.5,0.1-11,0-16.3-1.9c14.8,2.7,28.4,0.7,40.6-8.9c-1.1-0.9-1.9-0.5-2.9,0.1
	c-4.5,3-9.3,5.4-14.6,6.9c-2.9,0.8-5.8,0.9-8.7,1.2c-4.5,0.5-8.9,0-13.4-0.4c-1.6-0.1-3.2-0.6-4.7-1.2c14.5,2.7,27.9,0.7,40-8
	c-1.6,0.9-3.3,1.8-4.9,2.6c-6.1,3.2-12.5,5.8-19.4,5.8c-5.8,0-11.7-0.2-17.3-1.9c-0.1,0-0.3-0.2-0.5-0.4c3.7,0.3,7.2,1.2,10.9,1.2
	c-0.3-0.4-0.7-0.1-0.9-0.3c-2.2-1.3-4.7-1-7.1-1.2c-3.6-0.3-6.4-2.5-9.7-3.8c5.1,0.6,10.1,1.3,15.5,0.9c-0.6-0.2-0.9-0.3-1.2-0.4
	c10.8-0.5,20.3-4.2,28.9-11c-1.2-0.6-1.9,0.1-2.6,0.6c-4,2.9-8.4,5.2-13.1,6.9c-0.5,0.2-1.1,0.3-1.7,0.4c-0.1-0.1-0.1-0.1-0.2-0.1
	c-0.3-0.3-0.6-0.2-0.9,0c0,0,0,0,0,0c-0.3,0-0.7,0-1-0.1c0,0,0,0,0,0c0.2-0.3,0.5-0.6-0.2-0.5c-1.1,0.2-2.2,0.5-3.3,0.7
	c-3.8,0.6-7.7,0.5-11.6,0.6c-4.6,0.1-9-0.7-13.2-2.7c1.3-0.1,2.5,0.4,3.8,0.2c0-0.4-0.5-0.2-0.5-0.4c0-0.4,0.3-0.2,0.5-0.2
	c2,0.1,3.9,0.3,5.9,0.3c-4.4-0.6-9-0.4-13.3-2.3c9.9,1.6,19.8,2.1,29.3-2c-0.1-0.4-0.4-0.2-0.5-0.1c-9.7,3.3-19.6,3.1-29.6,1.2
	c-3-0.6-6.1-0.8-9.1-1.8c6.3,0.9,12.5,1.1,18.8,0.2c-6.9-0.1-13.7-0.8-20.4-2.8c-1.3-0.4-2.3-1.2-3-2.3c-0.1-0.1-0.3-0.1-0.5-0.2
	c-1.8-0.5-3.7-1.1-5.5-1.7c5.2,0.6,10.4,1.3,15.6,0.7c-5.9-0.1-11.7-0.4-17.3-2.6c5.5,0.6,11,1.4,16.6,0.7c-2.1-1.1-4.3-0.9-6.5-0.9
	c0.1,0.5,0.7,0,0.9,0.6c-4.7-0.9-9.5-0.7-14-2.5c8.2,1.4,16.3,1.6,24.4-0.8c-0.8,0-1.5,0.1-2.3,0.1c-4.7,0.6-9-1.2-13.4-2.4
	c-2.9-0.8-5.6-2.2-8.8-1.8c0.2-0.6,0.8-0.1,0.9-0.7c-3.9-1.4-7.8-2.6-11.9-3c-0.9-0.1-1.9-0.2-2.7-0.6c-2.9-1.4-6.1-1.9-9.2-2.3
	c-2.7-0.4-4.7-1.8-6.5-3.6c-0.8-0.8-2-0.8-2.8-1.9c1.5,0.4,2.9,0.7,4.4,1c8.6,1.8,16.5-0.5,24.1-4c11.7-5.4,21.8-13.3,30.8-22.5
	c3.9-4,7.5-8.3,10.7-12.8c1.6-2.2,2.2-4.8,3.5-7.2c3.6-6.6,7.3-13.1,11.5-19.3c0.1-0.1,0.1-0.3,0.2-0.7c-7.2,6.7-11.7,15-17.2,22.7
	c1.1-1.7,2.1-3.5,3.2-5.2c-6.2,8-11.8,16.4-20.1,22.5c-0.3-0.3,0-0.4,0.1-0.5c6.8-5.4,11.9-12.2,16.8-19.2
	c3.3-4.6,6.7-9.2,10.3-13.6c0.4-0.5,0.8-1.1,1.2-1.7c-9.5,10.3-16,23-26.7,32.3c2.6-2.8,5.2-5.6,7.6-8.7c2.4-3,4.4-6.2,6-9.8
	c-15.9,25.2-38.8,36.9-68.4,35.6c2.5-0.2,5-0.2,7.5-0.5c3.7-0.4,7.5-1,11.2-1.5c0.8-0.1,2.2-0.2,1.9-1.2c-0.2-0.8-1.5-0.5-2.3-0.3
	c-3.9,0.9-7.9,1.6-11.9,1.9c-2.6,0.2-5.3,0.2-8,0c2.8-0.2,5.6-0.4,8.4-0.7c0.5-0.1,1.5,0.1,1.4-0.6c-0.1-0.8-1-0.4-1.6-0.4
	c-2.5,0.2-4.9,0.7-7.4,0.7c-0.5,0-1.1,0.3-1.8-0.4c2-0.2,3.9-0.3,5.8-0.4c1.9-0.1,3.8-0.3,5.6-1c-5.3,0.3-10.5,0.3-15.8,0.1
	c15.8-0.6,30.4-5,43.4-14.8c-1-0.2-1.4,0.3-1.8,0.6c-10.4,7.4-22,11.7-34.7,12.9c-0.7,0.1-1.4,0-2.1-0.2c-0.7-0.2-1.4-0.6-2.2,0.3
	c-0.8,0.8-7.4,0.3-8.3-0.5c0.3-0.5,0.9-0.3,1.3-0.3c2.1,0.2,3.9-0.9,5.9-1c14.2-0.8,26.7-6,37.8-14.7c6.3-5,11.6-10.9,15.1-18.2
	c1.5-3.2,3.4-6.3,4.9-9.5c-2.5,3-4.9,6.1-7.4,9.1c3.2-5.1,7.1-9.6,10.9-14.3c-0.5-0.3-0.7,0.1-0.9,0.3c-3.8,3.8-8.3,6.7-12.3,10.2
	c-8.5,7.3-17.3,14.3-26.8,20.2c-3.3,2-6.7,3.9-10.2,5.7c-1.6,0.8-3.5,0.2-4.9,1.5c-0.4,0-0.8,0.2-1.1,0.6c-0.1,0-0.3,0-0.4,0
	c-0.1,0.1-0.2,0.2-0.3,0.3c0,0,0,0,0,0c-0.2,0-0.5,0-0.7-0.1c-0.1,0.1-0.2,0.2-0.3,0.2c-0.8,0-1.5,0.3-2.2,0.6
	c-5.6,2.6-11.5,4.3-17.6,5.6c-1.6,0.4-3.1-0.7-4.7-0.1c-0.2,0.1-1.3-0.8-1.3-1.2c0-0.9,1-0.3,1.5-0.5c6.2-2,12.3-4.1,18.1-7.3
	c8.2-4.5,15.9-9.9,23.3-15.6c2.7-2.1,5.4-4.2,7.9-6.5c-2.9,2-5.8,4.1-8.7,6c-10,6.8-20.3,12.9-31.6,17.3c-9.7,3.8-19.8,6-30.2,6.2
	c-4.3,0.1-8.5-0.5-13-2.1c1.1-0.2,1.8-0.4,2.5-0.2c7.3,2.1,14.6,1.9,21.9,0.4c6.9-1.4,13.5-3.8,19.9-6.7c2.9-1.3,5.8-2.6,8.7-3.9
	c0.9,0,1.7-0.5,2.4-0.9c5.8-3.1,11.3-6.6,16.7-10.3c5.1-3.5,10.1-7.2,15.1-10.8c-2,0.5-3.3,2.1-5,3c-0.5-0.1-0.9,0-1.3,0.3
	c-6.8,3.7-13.5,7.5-20.3,11.2c-10.5,5.8-21.1,11.3-32.7,14.7c-3.7,1.1-7.4,2-11.3,2.1c2.5-0.5,5.1-1,7.6-1.6
	c11-2.8,21.2-7.6,31.1-13.1c10.5-5.7,20.9-11.7,31.3-17.5c0.6-0.3,1.1-0.7,1.5-1.2c-2.9,1.6-5.9,3.3-8.8,4.9
	c-10.7,5.8-21,12.1-31.9,17.5c-8.9,4.4-18.1,8.1-28,10.1c-6.3,1.2-12.7,1.8-19,0.3c-3.5-0.8-6.8-2.1-9.6-4.4
	c-0.6-0.5-1.4-0.9-2.1-1.1c-1.8-0.6-3.6-1.4-4.9-2.8c-1.3-1.4-3.2-2.1-4.9-2.9c-1.4-0.6-2.8-1.2-4-2.1c1.6,0.4,3.2,1.1,4.7,1.7
	c6.3,2.2,12.8,3.7,19.3,4.9c1.5,0.3,3.3,0.7,5-0.3c0.6-0.4,1.6,0.9,2.3-0.3c4,1,7.2-1.5,10.8-2.4c4.6-1.2,9-3.1,13.2-5.3
	c12-6.2,24.1-12.4,35.4-20.1c-1.6,0.7-3.2,1.3-4.7,2c-10.5,4.5-21.2,8.4-32.1,11.6c-10.3,3-20.8,5.3-31.6,5.6
	c-8.8,0.3-17.2-1.2-25-5.5c-2-1.1-3.4-2.2-4.5-3.7c2.3,1.6,4.3,2.9,6.5,4c5.6,2.8,11.6,4,17.8,4.2c14.3,0.7,27.9-3,41.3-7.4
	c15.6-5.1,30.7-11.4,45.3-18.9c0.8-0.4,1.6-0.9,2.5-1.3c0.4-0.2,0.8-0.5,1.1-1c-0.5,0.2-1,0.4-1.6,0.6c-13.5,5.4-26.9,11.1-40.5,16
	c-7.1,2.6-14.5,4-22.1,4.7c-3.3,0.3-10-0.6-12.5-1.6c0.1-0.3,0.4-0.2,0.5-0.2c2.3,0.6,4.6,0,6.9,0.4c6.1,1,12.1,0,18.1-1.7
	c11.8-3.4,23-8.3,34.2-13.4c-4.9,1.8-9.9,3.7-14.9,5.4c-9.4,3.1-18.8,6-28.7,7.1c-5.2,0.6-10.4,1.5-15.6,0.8c-1.6-0.2-3-0.7-4.4-1.5
	c3.4,1,7,0.9,10.5,1c-2-0.8-4.2-1.1-6.1-2.4c0.7-0.2,1.2,0.2,1.7,0.4c2.8,1.1,5.5,1.4,8.5,0.5c11.3-3.4,22.3-7.3,33.1-12
	c0.6-0.2,1.1-0.5,1.6-0.9c-5.3,1.4-10.6,2.8-16,4c-8.3,1.9-16.4,4.2-24.9,5c-5.4,0.6-10.8,0.4-16-1c-0.3-0.1-0.7-0.2-1-0.3
	c-0.3-0.2-0.6-0.4-0.4-0.8c0.2-0.3,0.5-0.3,0.8-0.2c5.9,2.5,12.1,2,18.2,1.3c5.5-0.7,10.9-2.2,16.3-3.5c5.8-1.4,11.7-2.5,17.4-4.4
	c7.7-2.6,15.6-4.7,23-7.8c-5.8,1.8-11.6,3.5-17.4,5c-14.9,4-30,6.5-45.4,7.7c-4.2,0.3-8.4,0.7-12.7,0.4c-1.1-0.1-2.1,0.6-3.4,0.3
	c-4.9-1.3-10-1.4-14.5-4c1.1,0.4,2.3,0.8,3.4,1.2c6.3,1.9,12.7,2.1,19.1,1.8c12.5-0.6,25-2,37.3-4.5c13.1-2.6,25.8-6.5,38.3-11.1
	c3.1-1.1,6.1-2.3,9.2-3.6c-7.7,2.1-15.5,4.1-23.3,5.6c-16.4,3.2-32.9,5.4-49.5,6.5c-12.3,0.8-24.6,1.8-36.9,0.9
	c-6.7-0.5-12,1.5-17.3,4.7c-4.7,2.8-9.5,5.6-14,8.7c2.3-2.6,5.1-4.6,8.1-6.4c2.9-1.8,5.9-3.4,8.9-5.1c1-0.6,2.6-1.4,2.5-2.1
	c-0.2-1-1.9-0.5-2.9-0.7c-4.4-0.5-8.6-1.9-12.7-3.4c-1.2-0.4-2.1-0.5-3.1,0.1c-1.7,1-3.4,2.1-5,3.1c-0.4,0.3-0.7,0.8-1.5,0.6
	c1.9-1.7,4-2.9,6-4.2c0.2-0.1,1.7-0.1,0.4-1c-0.3-0.2,0.4-0.6,0.7-0.7c9.1-4.3,18.6-7.3,28.2-10c19.8-5.4,40-9,60.4-11
	c7.2-0.7,14.4-1.3,22-1.4c-6.5-0.7-12.7-1-18.9-1.1c-7.3-0.1-14.5,0.1-21.7,0.6c-12.2,0.8-24.2,2.5-36.3,4.5
	c-9,1.5-17.9,3.4-26.7,5.7c-4.7,1.2-6.9,4.3-8.6,8.2c-0.2,0.4-0.3,0.8-0.4,1.1c0,0-0.1,0.1-0.1,0.1c-0.1-1-0.1-1,1.2-3.5
	c0.6-1.1,1.2-2.2,2.1-3.6c-4,1.2-7.3,3.2-10.6,5.1c1-1.4,2.5-2.1,4-2.8c4.6-2.2,9-4.5,13-7.9c3.6-3.1,8.1-4.9,12.6-6.6
	c12.7-4.7,26-6.4,39.4-7.3c11.1-0.7,22.2-0.9,33.2,0c8.5,0.7,17,1.6,25.4,3.2c0.7,0.1,1.5,0.1,2.1,0.2c-16.8-3.5-33.9-5.8-51.1-6.5
	c-10-0.4-19.9,1.3-29.7,3.4c-9.8,2.1-19.3,5.1-28.5,9c-0.6,0.3-1.3,0.5-2.1,0.4c2.9-1.2,5.8-2.4,8.7-3.5c3-1.1,6-2.1,9.1-3.1
	c3-1,5.9-2,8.9-2.8c3.1-0.8,6.2-1.4,9.3-2.3c-1.9-0.4-3.9,0.2-5.8,0.1c6.4-1.3,12.8-1.4,19.3-2c-7.2,0-14.4,0.5-21.6,1.2
	c18.7-2.7,37.5-2.1,56.1-1.2c-10.6-2.1-21.5-3.2-32.5-3.7c-11-0.5-22,0-32.8,2.8c-3.1,0.8-6.1,1.9-9,3.1c1.8-1.3,3.8-2,5.8-2.8
	c8.3-2.9,16.9-3.5,25.5-4c5.2-0.3,10.3-0.5,15.5-0.4c-0.4-0.1-0.8-0.2-1.2-0.3c6.1,0.7,12.2,0.8,18.2,1.2c-4.4-0.3-8.9-0.7-13.3-1
	c11.8-1.5,52.6,6.5,79.1,15.3c-4.7-2.5-9.4-4.7-14.3-6.9c-14.4-6.4-29.2-11.3-44.5-14.8c-14.1-3.3-28.5-4.8-43-5.5
	c-1.7-0.1-3.5,0.1-5.1,0.9c-3,1.4-6,2.7-9.1,3.9c2.9-1.8,6-3.2,9.1-4.6c-5.4,0-10.6,0.7-15.7,2.7c-3.4,1.4-6.9,2.6-10.1,4.5
	c-0.1,0-0.2,0-0.4,0c0,0,0,0,0,0c-0.2,0-0.5-0.1-0.7-0.1c0.6-1.4,2-1.6,3.1-2.3c1.1-0.7,2.4-1.2,3.5-1.8c-4.8,1.4-9.1,4-13.1,7
	c0.1-1.3,1-1.6,1.8-2.2c6-4.1,12.6-6.8,19.8-7.7c6.4-0.8,12.5-2.5,18.7-4.1c3.2-0.8,6.5-1.2,9.8-1.5c2.2-0.1,4.5-0.7,6.7-1.2
	c3.6-0.8,7.2-0.7,10.8-0.8c2.1,0,4.2,0.4,6.8,0.3c-10.3-2-20.2-2.9-30.1-0.9c3.9-1.2,7.8-1.5,11.8-1.7c3.5-0.2,6.9,0.7,10.4-0.1
	c0.3-0.1,0.6,0,0.9,0.1c7.5,1.5,14.9,3.2,22.4,4.8c10.5,2.3,20.7,5.7,30.6,10c0.1,0.1,0.3,0.1,0.9,0.3c-7.1-4.9-14-9.2-21.3-13
	c-9.7-5-19.9-8.8-30.5-11.2c-0.4-0.1-1.1,0.2-1-0.8c0-0.6-0.7-0.4-1-0.2c-1,0.6-2,0.3-3,0.1c0-0.6,0.8,0,0.7-0.7
	c-6.7-1.6-13.3-0.7-20,0.6c1-0.3,2.1-0.6,3.1-0.9c1.1-0.3,2.3-0.4,3.4-0.8c-5-0.2-10,0.5-15,0.9c11.6-2,23.2-2.8,35-1.4
	c-1-0.5-2.2-0.2-3.1-0.8c21.5,2.5,41.1,9.9,58.9,22.4c-8.2-7-32.1-20.4-44.1-21.3c0.2-0.5,0.7,0,1-0.4c-4.2-0.4-8.2-1.2-12.3-1.5
	c3-0.9,5.9,0.3,8.9,0.2c-3.6-0.7-7.2-1.4-10.6-2.1c3-0.4,15.6,2.3,28.4,6.2c9.4,2.9,18.2,7,27.2,12c-0.4-1.4-1.2-1.5-1.8-1.9
	c-7.5-4.3-15.4-7.6-23.2-11.2c-8.6-3.9-17-8.1-24.4-14c-2.9-2.3-5.4-4.9-7.7-7.8c-0.2-0.3-0.6-0.5-0.4-1.3c3.7,4.7,8,8.5,12.9,11.7
	c4.8,3.2,9.8,5.8,15.1,8.2c-8-4.2-15.9-8.6-22.2-15.1c-1-1.1-2-2.2-2.8-3.5c2.2,2.1,4.3,4.5,6.8,6.3c-2-2.4-4.7-4.4-6.1-7.4
	c5.9,6.2,12.5,11.4,20.1,15.3c-5.4-3.4-10.7-6.9-14.9-11.8c-0.9-1.1-2-2.1-3.1-3.2c0.9-0.5,1.1-0.1,1.2,0.1
	c5.4,7,12.6,11.7,20.1,15.8c9.1,5,18.9,8.7,28.2,13.3c3.9,1.9,7.8,4,11.8,5.9c-0.9-0.6-1.8-1.2-2.7-1.8c8.3,3.6,16,8.2,23.6,13.1
	c-0.9-0.6-1.8-1.2-2.7-1.9c-0.9-0.6-1.8-1.2-2.8-1.8C160.9,88,148,81.5,134.7,75.6c-9.1-4-17.9-8.5-25.6-14.7
	c-2.9-2.3-5.4-4.9-7.5-8.1c5.8,7.1,13.3,11.9,21.3,16c-5.9-3.6-11.7-7.2-16.1-12.7c0.7,0.7,1.4,1.4,2.2,2.1
	c6.5,5.9,14.1,10,21.9,13.8c3.9,1.9,7.8,3.8,11.9,5.3c0.5,0.3,1,0.6,1.5,0.8c5.9,2.6,11.5,5.5,17.2,8.5c2.8,1.5,5.5,3,8.2,4.4
	c-4.6-2.9-9.4-5.6-14.3-8c-4.1-2.1-8.3-4.2-12.7-5.7c-3.4-1.6-6.8-3.2-10.2-4.9c-7.2-3.6-14.2-7.4-20.3-12.8c-2-1.8-3.9-3.6-5.2-5.9
	c1.8,1.3,2.8,3.7,5.7,4.5c-1.5-2.5-3.6-4.1-4.4-6.6c0.6,0.8,1.3,1.7,1.9,2.5c6.4,7.9,14.7,13.2,23.9,17.3
	c13.7,6.1,27.3,12.4,40.4,19.7c7.7,4.3,15,9.3,21.7,15.1c0.4,0.4,0.9,0.8,1.4,1c-3.2-4.1-6.4-8-9.9-11.8c-4.7-5.1-9.7-9.9-14.8-14.5
	c-4.1-3.7-8.9-6.3-13.8-8.7c-8.1-4-16.3-7.8-24.4-11.7c-5.2-2.5-9.9-5.9-14-9.9c-0.5-0.5-1.1-1.1-1.6-1.6c0.1-0.1,0.2-0.2,0.3-0.3
	c0.6,0.5,1.1,1,1.7,1.4c0.1-0.1,0.1-0.1,0.2-0.2c-0.3-0.4-0.6-0.9-0.9-1.3c5.4,4.7,11,9.1,17.7,11.9c-2.8-1.8-5.7-3.4-8.4-5.4
	c-2.6-2-5.1-4.1-7.1-6.8c2.9,2.6,6,5.1,9.4,7c-1.4-1.2-2.8-2.4-4.3-3.6c0.1-0.1,0.2-0.2,0.3-0.4c4.6,4,9.7,7.2,15.4,9.5
	c-13-5.9-21.4-16.5-28.8-28.6c1,0.5,1.3,1.1,1.7,1.6c4.6,6.8,9.6,13.2,15.9,18.7c3.9,3.4,8.7,5.2,13.1,7.8c2.9,1.7,5.9,2.9,8.9,4.3
	c0.6,0.3,1.1,0.7,2.3,0.3c-3.7-1.8-7-3.5-10.4-5.1c0.1-0.1,0.1-0.3,0.2-0.4c1.5,0.7,2.9,1.4,4.4,2.1c8.1,3.8,16.3,7.3,24.2,11.6
	c9.9,5.5,18.2,12.9,26,20.9c6.3,6.4,12,13.4,17.5,20.6c-1-2-2.1-4-3.1-5.9c-1.1-2-2.3-4-3.3-6.1c3.9,5.1,6.6,11.1,10.1,16.5
	c-0.5-1.3-1.1-2.6-1.5-3.9c-3.2-10.2-9.2-18.8-15.2-27.5c-9-13-21.1-22.3-33.6-31.6c-7.8-5.8-15.4-12-22.4-18.8
	c-0.6-0.6-1.3-1.3-1.1-2.4c1.1,1.3,2.6,2.1,3.7,3.4c0.4,0.5,0.9,1.1,1.4,0.7c0.6-0.5-0.2-1-0.6-1.4c-3-2.9-5.5-6.1-8.2-9.3
	c-0.4-0.5-1-1-1-1.8c1.7,0.6,2.4,2.4,4,2.9c-1.8-3.1-4.3-5.7-6.1-9c1-0.2,1.1,0.4,1.4,0.8c1.9,2.6,3.6,5.4,5.8,7.9
	c4.2,4.8,8.6,9.3,13.6,13.3c4.6,3.7,9.4,7.2,14,10.8c0.4,0.3,0.8,0.5,1.2,0.7c-4.1-3.4-8.2-6.9-12.2-10.5c-4-3.6-7.5-7.8-10.6-12.3
	c0.6,0.6,1.1,1.3,1.7,1.9c0.6,0.7,1.3,1.3,2,2c1.2,1.2,2,2.9,3.7,3.6c0.9,0.6,1.2,1.7,2.3,2l0,0c0.1,0.1,0.2,0.2,0.3,0.4
	c0,0,0,0,0,0c0.3,0.7,0.8,1.2,1.5,1.4c0,0,0.1,0.1,0.1,0.1c0.1,0.1,0.2,0.2,0.3,0.3c0,0,0,0,0,0c0.2,0.4,0.5,0.7,1,0.8l0,0
	c0.1,0.1,0.2,0.3,0.3,0.4l0,0c0.2,0.4,0.5,0.7,1,0.8l0,0c0.1,0.1,0.2,0.3,0.3,0.4l0,0c0.1,0.2,0.2,0.5,0.6,0.5c0-0.1,0-0.2,0-0.3
	c0.1-0.2,0.1-0.4,0.2-0.6c0.7,0.2,1.2,0.7,1.7,1.2c3,2.8,6.8,4.5,10,7.2c-4.8-4-9.7-7.9-14.2-12.2c-4.5-4.4-8.5-9.2-12.1-14.3
	c-3.6-5.2-7-10.5-10.3-16.2c0.7,0.1,0.9,0.6,1.1,0.9c3.1,4.6,5.9,9.4,9.3,13.8c2.9,3.8,5.6,7.8,9,11.2c1.4,1.4,3.5,2.2,4.9,3.8
	c0.1,0.1,0.2,0.3,0.3,0.4c0,0,0,0,0,0c0.3,0.3,0.7,0.5,1,0.8l0,0c0.1,0.1,0.2,0.3,0.3,0.4c0.1,0.1,0.2,0.2,0.3,0.4
	c0.1,0.1,0.2,0.3,0.3,0.4c0.1,0.1,0.2,0.2,0.3,0.4c0.2,0.1,0.4,0.3,0.7,0.4c0.1,0.1,0.2,0.3,0.3,0.4c0.1,0.1,0.2,0.3,0.3,0.4l0,0
	c0.2,0.4,0.6,0.7,1,0.8c0.1,0.1,0.2,0.3,0.3,0.4c0.2,0.1,0.4,0.3,0.7,0.4c0.1,0.1,0.2,0.3,0.3,0.4c0,0,0,0,0,0
	c-0.1-0.1-0.2-0.3-0.3-0.4c-0.2-0.1-0.4-0.3-0.7-0.4c-0.1-0.1-0.2-0.3-0.3-0.4c-0.1-0.2-0.2-0.4-0.3-0.6c0-0.2,0-0.4,0-0.6l0-0.1
	c0.1-0.2,0.1-0.3,0.2-0.5c2.8,2,5.2,4.4,7.9,6.6C189.3,56,197.1,61.7,205,67c11.8,7.9,20.3,18.7,28.2,30.2c3.1,4.5,6.2,9,8.6,14.1
	c-0.5-1.7-1-3.3-1.4-5c-0.1-0.6-1-1.5,0.3-2c0.3-0.1,0-0.8,0-1.1c-1.2-9.4-4.2-18-9.4-26c-2.8-4.4-5.6-8.8-8.7-12.9
	c-4.3-5.6-9.8-9.7-16-13c-6.9-3.7-14.2-5.9-21.7-8.1c-6-1.7-11.2-5.1-15.5-9.6c-0.3-0.3-0.5-0.6-0.8-0.9c-0.1-0.1-0.1-0.3-0.1-0.5
	c0.3-0.3,0.6-0.1,0.8,0.1c5.6,6.1,12.5,9.4,20.5,11.5c11.3,3,21.7,7.8,30.5,15.8c4.7,4.3,8.2,9.6,11.7,14.9c0.3,0.4,0.4,1,1.1,1.2
	c-1-2.5-2.4-4.5-3.8-6.6c-4.3-6.5-9.6-12.1-16.3-16.2c-7-4.3-14.6-7.1-22.4-9.4c-2.7-0.8-5.4-1.4-7.9-2.7c-0.7-0.4-1.5-0.7-2-1.4
	c4.4,2.4,9.3,3.2,14,4.6c-2.8-1.1-5.6-2.1-8.4-3.2c-1-0.4-2-0.8-2.3-2.1c0.9-0.2,1.4,0.7,2.5,0.9c-3.8-2.8-7-5.6-9.1-9.6
	c0.5,0.6,1.1,1.2,1.5,1.8c4.2,5.4,9.9,8.9,16.2,11.3c4.4,1.7,9.2,2.6,13.6,4.4c9.8,3.9,19.3,8.4,26.8,16.1c2.1,2.1,3.8,4.5,5.7,6.8
	c2.4,3.1,4.7,6.2,6.8,9.6c0.9,1.4,2,2.9,3.1,4.2c-1.3-3.8-3-7.3-5.1-10.6c-3.7-6.1-7.8-11.8-12.5-17.1c-5.7-6.6-13-10.6-20.9-13.7
	c-3.2-1.3-6.3-3-9.1-5c-0.6-0.4-1.3-0.8-1.8-2c3.3,2.5,6.4,4.3,9.8,5.8c2.7,1.2,5.3,2.4,8,3.6c8.8,3.9,15,10.6,20.8,17.9
	c2.7,3.4,5.1,7.1,7.7,10.6c0.3,0.4,0.4,1,1,1c0.4-0.5,0.1-0.9-0.2-1.3c-5.3-8.4-10.9-16.4-18.7-22.8c-4-3.3-8.8-5.1-13.5-7.2
	c-4.2-1.9-8.4-3.9-12-7c-0.3-0.3-0.5-0.6-0.8-0.8c0.1-0.3,0.3-0.3,0.4-0.2c3.7,3.3,8,5.7,12.6,7.3c12.9,4.6,21.8,13.8,29.5,24.6
	c8.3,11.6,13.1,24.5,16.2,38.2c0.6,2.6,1.3,5.2,1.9,7.8c0,0.1,0.1,0.2,0.4,0.6c-0.4-1.9-0.8-3.4-1.1-4.8
	c-2.5-10.8-5.1-21.6-10.4-31.5c-5-9.5-11.4-18.1-19.3-25.5c-3.5-3.3-7.6-5.6-12.1-7.5c-5-2.1-10-4.4-14.4-7.7
	c-0.8-0.6-1.6-1.3-2.2-2.2c2.7,1.1,4.6,3.6,7.8,4.8c-2.4-1.9-4.5-3.4-5.9-5.8c0.8,0.7,1.5,1.5,2.4,2.2c0.9,0.7,1.8,1.5,2.7,2.1
	c0.9,0.7,1.8,1.6,3,1.6c1.4,0.3,2.2,1.4,3.4,2c4.5,2.1,8.9,4.2,13.4,6.3c1.1,0.5,2.1,1.2,3.5,1.5c-0.8-1-1.8-1.5-2.6-2
	C227.6,44,221.5,42,216,39c-0.3-0.2-0.7-0.1-1-0.2c-0.9-0.8-2.1-1.2-2.6-2.4c3.2,1.7,6.2,3.5,9.5,4.8c2,0.8,4,1.8,6.1,2.7
	c5.7,2.3,10,6.5,14.4,10.5c8.3,7.5,14.8,16.4,20.3,26.1c0.6,1.1,1,2.2,1.8,3.2c-1.1-2.8-2-5.6-3.2-8.3c-1.5-3.2-3-6.4-4.9-9.4
	c-2.5-3.8-5.3-7.5-8.7-10.6c-2.3-2-4.6-3.9-6.9-5.8c-1.9-1.5-4.2-2.3-6.4-3.1c-0.5-0.2-0.5-0.2-0.6-1.1c-0.1-0.5-0.6-0.6-1-0.8
	c-4.2-2.3-8.6-4.3-13-6.3c-0.5-0.2-1.1-0.2-1.4-0.8c0.6-0.6,1.2-0.1,1.8,0.1c5.2,2.1,10.2,4.4,15.4,6.5c4.6,1.9,9.1,3.8,13.4,6.2
	c4.1,2.4,8.2,4.9,11.9,7.9c0.5,0.4,0.9,0.9,1.7,0.8c1.2,0.4,2,1.4,3,2.1c0.1,0.1,0.2,0.3,0.3,0.4c0.2,0.1,0.4,0.2,0.6,0.3
	c0.3,0,0.6,0.1,0.9,0.1c0.6,0.3,1.1,0.6,1.7,0.9c0.4,0.2,0.7,0.2,0.6-0.4c0-0.7-0.4-1.1-0.9-1.4c-3.4-2.1-5.7-5.4-8.4-8.3
	c-4.6-4.8-8.7-10-11.1-16.3c-0.6-1.5-1.1-3-1.1-4.7c0.9,2.5,1.6,5.2,3.1,7.5c-1.2-3.7-2.8-7.2-2.4-11.2c0.9,5.3,2.3,10.3,5.7,14.6
	c-1.2-2.6-2.3-5.3-3.1-8.1c-0.1-0.3-0.2-0.7-0.3-1c-0.1-0.3-0.2-0.8,0.3-0.9c0.6-0.1,0.4,0.4,0.4,0.7c0.6,2.8,1.5,5.4,3.1,7.8
	c-1-3.3-2.6-6.5-1.9-10.4c0.6,5.4,2.1,10.1,5,14.2c-1.4-3.9-3-7.7-2.7-12c0.6,4.2,1.8,8.2,3.8,12c-0.8-2.6-1.6-5.1-1.4-7.9
	c0.6,5.4,2.8,10.2,6.1,14.6c-1.8-3.7-3.5-7.4-4.4-11.4c0.2-0.1,0.3-0.1,0.5-0.2c0.2,0.7,0.5,1.4,0.7,2.1c1.4,5.6,4.4,10.6,8.5,14.4
	c4.2,3.7,7.6,8.1,11.8,11.8c4.2,3.7,8.6,7.1,12.8,10.8c5.3,4.7,11.1,8.9,16.1,13.9c2.7,2.7,4.7,5.9,7.1,8.8
	c5.7,6.8,8.5,15.1,11.6,23.2c0.2,0.6,0.2,1.9,1.2,1.5c0.7-0.2,0-1.3-0.2-1.9c-3.2-9.7-8-18.6-13.8-27.1c-4.3-6.4-9-12.4-14.2-18
	C296.5,74,291,69.2,285.9,64c-3.9-4-7.4-8.2-9.7-13.3c-0.7-1.7-1.2-3.3-1-5.2c0.7,1.9,1.1,3.9,2.2,5.6c-0.3-1.3-0.5-2.7-0.8-4
	c0.1-0.1,0.3-0.1,0.4-0.2c0.6,4,2.3,7.2,5.2,9.9c0.5-0.4-0.2-1,0.3-1.5c2,3.2,4.8,5.8,7.5,8.3c2,1.8,3.9,3.7,6,5.5
	c-1.4-1.8-2.8-3.5-3.9-5.5c-1.2-2-2.2-4.1-2.7-6.4c-0.4-2.3-0.6-4.5,0.1-6.8c0.2,0,0.3,0,0.5,0c-0.1,0.9-0.1,1.8-0.2,2.6
	c-0.3,3.7,1.1,6.9,3,9.9c0.3,0.5,1.1,0.8,1.7,1.2c0.1,0.4,0.3,0.8,0.6,1.1c6.6,8.4,14.1,15.9,21.9,23.1c4.1,3.8,7.5,8.1,11.1,12.4
	c5.8,7,10.9,14.6,15.1,22.7c5.6,10.6,9.2,21.8,11.1,33.6c0,0.2,0.1,0.4,0.2,0.7c1-2.8-0.7-13.6-3.4-23c-2.2-7.5-5.2-14.8-8.8-22
	c4.3,3.7,12.1,28.2,13.5,41.6c1.3-3.3,2.3-6.6,2.8-10.1c1.2-7.7-0.7-14.7-3.5-21.9c-2.3-6-5.3-11.5-8.8-16.8
	c-2.5-3.8-5.1-7.6-7.7-11.3c-3.1-4.2-5.9-8.6-8.9-12.9c-2.7-3.8-5.2-7.8-8.1-11.5c-2.1-2.7-3.8-5.8-5.7-8.7
	c-0.6-0.9-0.3-1.9-0.2-2.9c0.6,0.2,0.5-0.2,0.4-0.5c-0.6-1.4-1.2-2.7-1.7-4.1c-0.3-2.4-1-4.8-1.1-7.2c-0.1-2.5,0.4-4.9,1.4-7.2
	c-1.4,4.4-1.1,8.8,0.1,13.2c1.2,4.4,3.3,8.3,5.8,12c-3.1-6.9-5.7-13.8-2.8-21.4c-2.7,9.2,1.2,16.9,5.7,24.4
	c-2.7-6.8-4.7-13.7-2.2-21c-0.7,2.9-1.1,5.8-0.6,8.8c0.5,3,1,5.9,3.1,8.4c-1.2-5-1.4-10,0.5-14.8c-2.4,6.7-0.6,12.9,2.1,19
	c0.1,0.3,0.3,0.6,0.4,0.9c0.2,0.4,0.5,1,1,0.7c0.4-0.2,0.1-0.7,0-1.1c-1.5-3.9-1.8-7.9-1.2-12c0.1-0.7,0.2-1.5,0.8-2.6
	c-0.5,2.7-0.9,5-0.7,7.3c0.6,6.3,3.3,11.8,6.4,17.1c4.1,6.8,9.2,13,13.7,19.5c0.2,0.3,0.5,0.9,0.9,0.6c0.5-0.3,0.2-0.8-0.1-1.2
	c-0.3-0.5-0.8-1-0.8-1.7c0,0,0-0.1,0-0.1c-0.3-0.5-0.6-1.1-0.9-1.6c-0.1-0.1-0.2-0.2-0.3-0.4c0,0,0,0,0,0c-0.1-0.1-0.2-0.2-0.3-0.3
	c0,0,0,0,0,0c-0.1-0.1-0.1-0.1-0.2-0.2c-0.4-0.7-0.9-1.4-1.3-2c-0.1-0.1-0.2-0.2-0.3-0.3c0,0,0,0,0,0c-0.1-0.1-0.1-0.1-0.2-0.2
	c-0.2-0.2-0.4-0.4-0.5-0.6c0-0.1-0.1-0.1-0.1-0.2c-0.2-0.4-0.5-0.8-0.7-1.3c-0.1-0.1-0.2-0.2-0.3-0.3c0,0-0.1-0.1-0.1-0.1
	c0-0.1-0.1-0.1-0.2-0.2c-0.1-0.1-0.2-0.2-0.2-0.2c0-0.1-0.1-0.1-0.1-0.2c-0.2-0.4-0.5-0.9-0.7-1.3c-0.1-0.1-0.2-0.2-0.2-0.3
	c0,0-0.1-0.1-0.1-0.1c0-0.1-0.1-0.2-0.2-0.2c-0.1-0.1-0.1-0.1-0.2-0.2c0-0.1-0.1-0.1-0.1-0.2c-0.1-0.3-0.3-0.6-0.4-0.9
	c-0.1-0.1-0.1-0.2-0.2-0.3c0,0,0,0,0,0c-0.1-0.1-0.2-0.2-0.3-0.3c0,0,0,0,0,0c-0.1-0.1-0.2-0.2-0.3-0.2c-0.4-1.6-1.7-2.6-2.2-4.1
	c-0.1-0.1-0.2-0.3-0.3-0.4c-0.1-0.1-0.2-0.3-0.3-0.4c0,0,0-0.2,0-0.2l-0.1-0.2c0,0,0,0,0,0c-0.1-0.1-0.2-0.3-0.3-0.4
	c-2.4-5.1-5-10.1-5.9-15.9c-0.5-3.5-0.1-7.4,1.6-9.9c-2,4.9-1.3,9.7,0.1,14.5c1.3,4.5,3.7,8.5,6.2,12.3c-3.7-7-7.3-13.9-5.7-22.2
	c0,1.5-0.1,3,0,4.5c0.6,6.9,3.6,12.8,7.2,18.5c6.2,9.6,13.2,18.5,19.7,27.9c6,8.6,12.3,17,17.5,26.2c3.7,6.5,6.3,13.3,6.8,20.9
	c0.2,3.4,0,6.7-0.5,10.1c2.3-4.1,4.3-8.4,5.7-12.9c2.5-8.1,0.8-15.6-3.5-22.7c-3.3-5.4-7.3-10.2-11.4-15
	C363.7,103.8,355,93,346.6,82c-2.8-3.7-5.3-7.5-7.3-11.6c-1.4-2.9-2.1-5.9-2.1-9.1c0.7,3.3,1.3,6.7,3.3,9.6c-0.5-3.7-1.2-7.3-0.7-11
	c0.1,1.2,0.3,2.5,0.4,3.7c0.4,6.3,3.4,11.6,7,16.6c9.7,13.7,20.6,26.5,31.6,39.2c3.5,4.1,6.9,8.3,9.8,12.9c0.3,0.4,0.5,1.1,1.5,1
	c-1.3-2.2-2.6-4.1-4-6c-4.4-5.8-9.2-11.2-14-16.7c-7.2-8.2-13.7-17-20-25.9c-2.5-3.5-4.7-7.2-6-11.4c0.7,0.2,0.7,0.7,0.8,1.1
	c1.7,4,4,7.7,7.1,10.8c0.5,0.5,0.8,1.2,1.2,1.7c2.4,3,4.8,5.9,7.2,8.9c1.7,2.1,3.1,4.3,4.9,6.3c4.9,5.3,9.5,11,14.2,16.4
	c5.4,6.2,10.9,12.3,15.2,19.3c2.3,3.8,5,7.2,7.7,10.7c0.4,0.5,0.7,1.3,1.4,1.2c0.3-2.6-0.1-5.1-0.6-7.6c-1.3-6.6-3.3-13-6.1-19.1
	c-1.9-4.3-4.9-8.2-7.6-12.1c-5.8-8.4-11.7-16.8-17.5-25.2c-2.3-3.3-4.6-6.5-7.2-9.6c-1.2-1.4-2.4-2.9-4.1-4c-0.5-0.3-1-0.8-0.9-1.6
	c0.9,0.8,1.9,1.5,2.7,2.3c2,2.1,4,4.5,6.5,5.7c4.8,2.4,7.3,7.2,11.2,10.5c0.7,1.3,1.3,2.7,2.6,3.6c0.1,0,0.2,0,0.3,0.1l0,0
	c0.1,0.1,0.2,0.3,0.3,0.4l0,0c0.1,0.1,0.1,0.2,0.2,0.2c0.1,0.1,0.2,0.2,0.3,0.3l0.1,0.1c0.1,0.1,0.1,0.2,0.2,0.3
	c0,0.1,0.1,0.1,0.1,0.2c0,0.1,0.1,0.1,0.1,0.2c0,0,0,0.1,0,0.1c0.1,1.3,1,2,1.9,2.7c0.1,0,0.2,0,0.3,0l0,0c0.1,0.1,0.2,0.3,0.3,0.4
	c0,0,0,0,0,0c0.1,0.1,0.1,0.2,0.2,0.3c0.1,0.1,0.2,0.2,0.2,0.2c0.1,0.1,0.1,0.2,0.2,0.3l0,0c0-0.1-0.1-0.1-0.1-0.2
	c0.1-1-0.8-1.6-1.2-2.4c1.5,0.1,2.1,1.4,2.8,2.4c3.3,4.7,6.6,9.4,9.9,14.2c4.8,6.9,9.9,13.6,14.2,20.9c1.2,2,3.5,3.1,5.2,4.5
	c1.4,1.1,2.4,2.6,3.9,3.6c4.9,2.9,8.9,6.8,12.6,11c6.2,7.1,13.2,13.4,19.6,20.3c7,7.5,13.9,15.2,18.4,24.6c2,4.2,3.4,8.5,4.4,13
	c0.1,0.4,0,0.9,0.5,1.3c0.5-0.8,0.1-1.5,0-2.2c-1.7-8.3-5.5-15.7-10.5-22.6c-6.3-8.7-14-16.1-21.5-23.7c-3.6-3.6-7.1-7.3-10.4-11.2
	c-1.2-1.4-2.7-2.5-3.6-4.1c2.3,1.7,4.1,3.8,6,5.9c7,7.8,14.7,15,22,22.6c6.4,6.8,12.2,14.1,16.4,22.5c-0.4-0.8-0.7-1.6-1.1-2.5
	c-0.4-0.9-0.9-1.8-1.4-2.6c-4.1-7.4-9.6-13.7-15.4-19.8c-4.5-4.8-9.4-9.2-13.7-14.1c-2.7-3.1-5.4-6.1-8-9.1
	c-2.5-2.8-5.3-5.3-8.3-7.7c-0.5-0.4-1.1-0.8-1.6-2c3.1,2.3,5.7,4.3,8.1,6.7c8.6,8.5,16.6,17.7,25.4,26.1c0.8,0.8,1.6,1.4,2.9,2.1
	c-0.4-1.1-1.1-1.7-1.7-2.2c-6.2-6.2-12.4-12.5-18.2-19.2c-2.2-2.5-4.8-4.7-6.8-7.4c0.9,0.4,1.6,1.1,2.3,1.8c3.3,3.1,6.4,6.4,9.4,9.7
	c1.4,1.6,2.9,3,4.3,4.5c-5.1-5.9-9.9-12-16-16.9c-0.6-0.5-1.1-1.1-1.9-1c-0.3-0.4-0.6-0.7-0.9-1.1c-0.3-0.4-1.3-0.6-0.7-1.3
	c0.5-0.5,1,0.2,1.5,0.6c3.1,2.3,6,4.9,9.1,7.3c3.1,2.3,5.9,4.9,8.5,7.6c4.1,4.2,8.2,8.5,12.3,12.8c5.2,5.4,10.6,10.6,15.7,16.1
	c2.4,2.6,4.6,5.4,6.8,8.2c0.6,0.8,1.2,1.6,2,2.7c0.2-1.8-0.5-2.8-1.3-3.8c-5.6-7.4-12.2-13.9-18.6-20.5c-4.4-4.4-8.7-8.9-12.7-13.6
	c-1.2-1.4-2.8-2.6-4.1-4.6c2.6,1.6,3.8,4,6.1,5.5c0.3-0.8-0.5-1.1-0.5-2.1c4.2,4.5,8,8.9,12.6,12.5c4.6,3.6,10,6,15.2,9.8
	c-0.5-2.7-1.6-4.8-2-7.1c2.8,4.3,3.3,9.9,8.4,12.8c-1.2-4-1.8-8.2-4.1-12.2c1.2,0.2,1.3,0.9,1.5,1.4c2,4.1,3.5,8.4,4.6,12.8
	c0.3,1,0.5,2,1.9,2.9c-1.7-8-4.4-15.2-8.2-22c4.9,7.2,7.6,15.3,9.4,23.8c-0.1-2.1-0.6-4.1-1.2-6.1c-0.6-2-1.1-4-1.8-6
	c-0.7-2-1.5-4-2.4-6c-0.8-1.9-1.8-3.7-2.6-5.6c1.6,2.2,2.8,4.7,4,7.2c2.4,5.5,4.1,11.2,5.1,17.2c0.3,1.7,1.2,2.9,2.4,4.1
	c-1.1-8.7-3.3-17.1-7.6-25.3c1.3,0.4,1.4,1.2,1.7,1.8c4,7.8,6.4,16.1,7.5,24.7c0.3,2.4,1.6,4.3,2.9,6.2
	c-1.3-16.5-6.1-31.6-17.5-44.4c1-0.4,1.5,0,2,0.6c2.1,2.3,3.9,4.9,5.8,7.4c7.9,10.5,10.5,22.8,11.8,35.5c0.2,2,0.4,4,0.5,6.1
	c0.1,0.8,0.3,1.6,0.9,2.3c-1-17.7-3.8-34.8-15.2-49.2c1.4,0.7,2.2,2,3.2,3.1c2.7,2.6,5.1,5.3,7.1,8.6c7.3,11.8,9,24.8,9.9,38.2
	c0.4,5.9,0.3,11.8,0.3,17.7c0,1.1,0.4,1.7,1.1,2.4c5.8,4.9,11.5,9.8,17.2,14.7c2.7,2.4,5.3,4.9,8,7.2c-2.8-6.5-7.3-11.9-12.2-17.3
	c1.2-0.4,1.8,0.3,2.3,0.8c2.1,2.1,4.1,4.3,6.1,6.5c0.3,0.4,0.4,1.2,1.2,0.3c0.4-0.5,0.8,0.4,1.1,0.8c3.2,4.7,5.7,9.7,7.4,15.1
	c0.3,0.8,0.4,1.7,1.2,2.5c-1.6-5.9-4-11.2-7.1-16.2c-3.1-4.9-6.8-9.4-11.2-13.3c0.1-0.1,0.2-0.2,0.3-0.4c0.7,0.6,1.4,1.2,2,1.8
	c0.7,0.7,1.4,1.3,2.5,2.3c-0.4-1.5-1.6-1.9-2-3c1.8,1.1,3.2,2.6,4.7,4.1c6.4,6.9,11.2,14.8,14,23.8c0.1,0.4,0.3,0.9,0.5,1.3
	c0.2,0.5,0.7,0.8,1.1,0.6c0.7-0.2,0.3-0.8,0.2-1.2c-1.3-4.4-3.2-8.5-5.5-12.4c-2.8-4.8-6-9.3-10.1-13c-1-0.9-0.5-2.1-1.3-3
	c-1.5-1.6-3.1-3.1-4.8-4.6c-0.4-0.4-1-0.6-1.2-1.5c3.5,2.5,6.4,5.3,9.2,8.2c7,7.4,12.1,15.8,15,25.6c0.1,0.3,0.2,0.7,0.4,1
	c0.1,0.2,0.3,0.4,0.5,0.4c0.3,0,0.5-0.3,0.5-0.6c0-0.5-0.1-0.9-0.3-1.4c-1.2-3.9-2.8-7.6-4.6-11.3c-1.7-3.4-3.6-6.7-6.1-9.7
	c-2.6-3.2-5.4-6.2-8.6-8.7c-2.3-1.8-3.7-4.4-6.1-6c1.7,0.6,2.9,1.9,4.7,3.1c-1-1.4-2.7-1.8-2.6-3.5c2.4-0.1,11.5,8,17.6,15.6
	c5,6.3,8.4,13.4,10.8,21.4c0.7-1.1,0.3-1.8,0.1-2.4c-3.2-11-9.6-20-17.9-27.8c-2.6-2.5-5.5-4.7-8-7.1c14.2,10,26.1,21.9,30.5,39.5
	c0-3.9-0.6-7.7-1.1-11.5c1,2.7,1.5,5.4,1.6,8.2c0.5,13.2,4.3,22.6,7.9,31.5c-0.9-4.5-1.1-9-1.3-13.6c-0.1-1.5-1-2.8-1.6-4.2
	c-0.3-0.6-0.5-1.3-0.4-2.1c0.6,1.1,1.1,2.3,1.9,3.9c0.2-2.3,0.3-4.2,0.5-6c0.4,1.8,0.3,3.6,0.3,5.3c-0.1,2.1,0.4,3.9,1.2,5.7
	c1.5,3.7,2.5,7.5,3.4,11.3c-0.5-4.4-1.2-8.7-2.4-12.9c3.5,8,3,16.9,5.3,25.2c0.9-1.6,0-3.1-0.3-4.8c1.4,1.5,1.3,3.2,1.7,5.2
	c1.8-5.2,2.4-10,1.1-15.2c0.9,1.3,1.3,3.2,1.3,5.3c-0.1,3.1-0.3,6.2-1.3,9.1c-0.5,1.5-0.1,1.7,1.3,1.5c4.9-0.6,9.8-1.1,14.7-1.5
	c1.4-0.1,2.9-0.3,4.3,0.1c0.8,0.2,1.8,0.4,2,1.5c0.1,1.1-0.9,1.4-1.6,1.8c-3.3,1.5-6.9,1.9-10.5,2.4c-2.6,0.4-5.3,0.6-8,0.8
	c-1.7,0.1-2.8,0.9-3.6,2.3c-1.6,2.8-2.7,5.8-3.6,8.9c-2.3,7.9-6.1,15.1-10.8,21.8c-0.8,1.2-0.9,2.1-0.5,3.4c0.6,1.6,1.5,3.1,2.1,4.7
	c-4-4.9-4.2-10.6-3.7-16.6c-1.2,1.6-2.3,4.8-2.2,6.5c0,0.2,0.4,0.6-0.3,0.5c-1-0.2-0.8,0.7-0.9,1.1c-2.6,7.1-5.1,14.2-8.7,20.9
	c-1.5,2.8-2.8,5.6-5.1,7.8c0.1-0.3,0.2-0.7,0.4-0.9c4.6-6.5,7.4-13.9,10.2-21.2c0.2-0.6,0.6-1.2,0.4-2.3c-1,2.4-1.9,4.5-2.6,6.6
	c-3,7.9-7.2,15.2-12.6,21.7c-0.7,0.9-1.7,1.5-2.2,2.6c-3,2.7-6.2,5-10.1,6.9c0.3-0.9,0.9-1,1.3-1.3c3.1-2.1,6.1-4.4,8.7-7
	c4.2-4.2,6.8-9.4,9.3-14.7c3.2-6.9,5.6-14.1,7.9-21.4c-0.7,2-1.4,3.9-2.2,5.9c-2.8,7.6-5.6,15.3-9.9,22.2
	c-4.3,6.9-10.3,11.9-17.2,16.1c-0.4,0.2-0.8,0.4-1.3,0.4c2.8-2.2,5.9-3.9,8.6-6.9c-2.1,0.7-2.9,2.9-4.9,2.5c0.4-0.4,0.8-0.9,1.2-1.2
	c8.2-6.8,12.5-15.9,16.2-25.6c-1.1,0-1.5,0.6-1.8,1.4c-1.7,4-3.3,8.1-5.4,11.9c-3,5.6-7,10.4-11.9,14.4c-1.9,1.3-4,2.5-6.4,3.7
	c0.3-0.9,0.9-1,1.3-1.3c2.9-1.7,5.5-3.7,7.9-6c0.5-0.5,1-1,1.2-1.7c0-0.1,0.1-0.2,0.1-0.3c0.2-0.2,0.5-0.5,0.7-0.7
	c0,0,0.1-0.1,0.1-0.1l0-0.2c0.2-0.2,0.5-0.5,0.7-0.7c0,0,0.1-0.2,0.1-0.2l0-0.2c1.9-4.1,4.6-7.9,5.9-12.3
	c-4.9,9.5-11,17.9-20.9,22.8c-0.3-0.5,0.1-0.6,0.3-0.7c8.1-4.5,13.6-11.3,17.7-19.4c3.2-6.1,5.5-12.6,7.8-19.5
	c-3.3,2.2-3.1,6.1-5,8.8c0.6-1.7,1.1-3.5,1.8-5.5c-1.2,0.3-1.8,1-2.5,1.5c-8.8,7-18.8,11.8-29.4,15.2c-1.3,0.4-2.5,0.8-3.8,1.1
	c-0.8,0.2-1.6,0.5-2.2,1.3c-3.2,4.4-7.7,7.4-11.9,10.6c-2,1.5-4,2.7-6.6,3.4c0.4-1.4,1.4-2,2.3-2.6c5.2-3.2,9.8-7.2,13.8-12.3
	c-3.1,1.1-4.6,3.8-7,5.1C496.8,374.7,496.7,374.7,496.6,374.7C496.7,374.7,496.6,374.7,496.6,374.7z M275.1,166.2L275.1,166.2
	c0.1-0.1,0.2-0.2,0.4-0.3l0,0C275.3,166,275.2,166.1,275.1,166.2z M273.2,167.5L273.2,167.5c0.1-0.1,0.2-0.2,0.4-0.3
	c0.1-0.1,0.2-0.2,0.4-0.3c0,0,0,0,0,0c-0.1,0.1-0.2,0.2-0.4,0.3C273.5,167.3,273.4,167.4,273.2,167.5z M267.1,195.8c0,0,0,0.2,0,0.2
	c0.2,0,0.4,0.1,0.5,0.1c0.1-0.2,0.2-0.4,0.3-0.6c0.1-0.2,0.3-0.4,0.1-0.6c0,0-0.2,0.1-0.4,0.2c-0.1,0.2-0.2,0.4-0.3,0.6
	C267.2,195.7,267.2,195.8,267.1,195.8z M176.2,196.4c-0.1,0.1-0.2,0.2-0.4,0.3c0,0,0,0,0,0C176,196.6,176.1,196.5,176.2,196.4
	C176.2,196.4,176.2,196.4,176.2,196.4z M271,169.1c0.1-0.1,0.2-0.2,0.4-0.3c0.1-0.1,0.2-0.2,0.4-0.3c0.1-0.1,0.3-0.2,0.4-0.3
	c0-0.1,0-0.2,0-0.3c-0.1,0-0.2,0-0.3,0c-0.1,0.1-0.3,0.2-0.4,0.3c-0.1,0-0.2,0-0.3,0c-0.1,0-0.3,0-0.4,0c-0.4,0.7-1.3,1-1.2,2
	c0.1,0,0.2,0,0.3,0c0.1-0.1,0.3-0.2,0.4-0.3c0.1-0.1,0.2-0.2,0.4-0.3C270.8,169.3,270.9,169.2,271,169.1z M174.7,197.3L174.7,197.3
	C174.7,197.3,174.7,197.3,174.7,197.3z M175.4,197.7L175.4,197.7C175.4,197.7,175.4,197.7,175.4,197.7z M317.8,248.6
	c-0.3,0-0.6,0-0.9-0.1c-0.9,0.3-1.7,0.6-2.4,1.2c0,0.1,0,0.2,0,0.3c-0.2,0-0.5,0-0.7,0c-0.7,0.2-1.5,0.4-2.2,1.1
	c0.9,0.6,1.6,1.5,2.7,1c1.5-0.7,3.2-1.1,4.5-2.2c0-0.1,0-0.2,0-0.3c0.1-0.2,0.3-0.5,0.4-0.7c0.2-0.1,0.5-0.2,0.7-0.3
	c0.2-0.1,0.5-0.2,0.7-0.3c0.2-0.1,0.5-0.2,0.7-0.3c0.2-0.1,0.5-0.2,0.7-0.3c0.2-0.1,0.5-0.2,0.7-0.3c0.2-0.1,0.5-0.2,0.7-0.3
	c0.2-0.1,0.4-0.2,0.6-0.2c0.1-0.1,0.2-0.1,0.3-0.2c0.1,0,0.3-0.1,0.4-0.1c0.1-0.1,0.2-0.1,0.3-0.2c0.1,0,0.3-0.1,0.4-0.1
	c0.1-0.1,0.2-0.1,0.3-0.2c0.1,0,0.3,0,0.4,0c0.6,0.1,1.1,0,1.5-0.6c0,0,0,0,0,0c0.1-0.1,0.2-0.1,0.3-0.2c0.1,0,0.3-0.1,0.4-0.1
	c0.1-0.1,0.2-0.1,0.3-0.2c0.2-0.1,0.4-0.1,0.6-0.2c0.2-0.1,0.4-0.2,0.6-0.2c0-0.2,0.1-0.3,0.1-0.5c0-0.1,0-0.2,0.1-0.3l0,0
	c0.4-0.1,0.3-0.2,0-0.4c-1.2,0.1-2.3,0.4-3.1,1.3l0,0.1c-0.1,0-0.1,0.1-0.2,0.1c-0.2,0.1-0.4,0.1-0.6,0.2l-0.2,0.1
	c-0.2,0.1-0.4,0.1-0.6,0.2l-0.1,0.1c-0.2,0.1-0.4,0.2-0.6,0.2l-0.1,0.1c-0.2,0.1-0.4,0.2-0.6,0.2l-0.1,0.1c-0.7,0.1-1.3,0.4-1.8,0.9
	c-0.2,0.1-0.5,0.2-0.7,0.3c-0.2,0.1-0.5,0.2-0.7,0.3c-0.2,0.1-0.5,0.2-0.7,0.3c-0.2,0.1-0.5,0.2-0.7,0.3c-0.2,0.1-0.5,0.2-0.7,0.3
	C318.2,248.6,318,248.6,317.8,248.6z M330.7,261.5L330.7,261.5c0.2,0,0.5,0,0.7,0c1.2-0.3,2.3-0.7,3.3-1.5l0-0.2c0,0,0-0.2,0-0.2
	c0-0.1,0-0.2,0-0.4c0.2-0.1,0.5-0.2,0.7-0.3c0.2-0.1,0.5-0.2,0.7-0.3l0,0c-0.2,0.1-0.5,0.2-0.7,0.3c-0.2,0.1-0.5,0.2-0.7,0.3
	c-0.2,0.1-0.5,0.2-0.7,0.3l0,0c-0.2,0-0.5,0-0.7-0.1c-0.2,0-0.5,0-0.7-0.1c-1.1,0.2-2.1,0.7-3,1.2c-0.6,0.3-0.5,0.5,0.1,0.7l0,0
	c0.3,0.3,0.5,0.7,1,0.4l0-0.1L330.7,261.5z M198.6,237.6c0.2,0,0.5,0,0.7,0c0.2-0.1,0.3-0.2,0.1-0.4c-0.3-0.3-0.6-0.1-0.9,0
	C198.3,237.4,198.3,237.6,198.6,237.6z M266.7,197.4c0.1-0.2,0.3-0.4,0.1-0.6c0,0-0.2,0.1-0.4,0.2c-0.1,0.2-0.3,0.4-0.4,0.7
	c-0.1,0.2-0.3,0.4-0.4,0.7c-0.1,0.2-0.3,0.4-0.4,0.7c-0.1,0.2-0.3,0.4-0.4,0.7c0,0-0.1,0.1-0.2,0.1c-0.2,0-0.4,0-0.7-0.1
	c-1.5,2.6-3.1,5.2-4.6,7.8c0,0.3-0.1,0.6-0.1,1c0.1,0.3,0.1,0.8,0.6,0.3c0.1-0.2,0.3-0.4,0.4-0.7c0.1-0.2,0.3-0.4,0.4-0.7l0,0
	c0.1-0.2,0.3-0.5,0.4-0.7l0,0c0.1-0.2,0.3-0.5,0.4-0.7l0,0c0.1-0.2,0.3-0.5,0.4-0.7l0,0c0.1-0.2,0.3-0.5,0.4-0.7l0,0
	c0.1-0.2,0.3-0.5,0.4-0.7l0,0c0.1-0.2,0.3-0.5,0.4-0.7l0,0c0.1-0.2,0.3-0.5,0.4-0.7l0,0c0.1-0.2,0.3-0.5,0.4-0.7l0,0
	c0.1-0.2,0.3-0.5,0.4-0.7l0,0c0.1-0.2,0.3-0.5,0.4-0.7c0.1-0.2,0.3-0.5,0.4-0.7c0.1-0.2,0.3-0.4,0.4-0.7c0.1-0.2,0.3-0.4,0.4-0.7
	c0.1-0.2,0.3-0.4,0.4-0.7C266.5,197.9,266.6,197.6,266.7,197.4z M244,78.1c0.2,0,0.4,0,0.6,0.1c0.2-0.3,0.2-0.6-0.1-0.7
	C244,77.4,244,77.8,244,78.1z M243.1,76.6c0.2,0,0.4,0,0.5,0.1c0.2-0.3,0.2-0.6-0.1-0.7C243,75.9,243,76.3,243.1,76.6z M315.8,244.3
	c-0.7,0.1-1,0.6-1.2,1.5c1.1-0.5,2-0.9,3-1.3c0-0.1-0.1-0.2-0.1-0.2c-0.3,0-0.5,0.1-0.8,0.1C316.4,244.3,316.1,244.3,315.8,244.3z
	 M144.6,184.5c-3.2,1.9-6.1,4.4-9.4,6.1c-2.7,1.4-5.4,2.9-8.1,4.4c11.4-4.9,21.6-11.7,31.3-19.2c9.8-7.5,19.4-15.2,29.1-22.8
	c-1.1,0.5-2.1,1.1-3,1.8c-9,7-17.9,14.1-26.9,21c-2.2,1.7-4.3,3.6-6.9,4.7c0.4-0.4,0.8-0.8,1.3-1.2c3.7-2.8,7.5-5.6,11.2-8.5
	c2.5-1.9,4.9-3.9,7.3-5.8c-4.3,2.9-8.4,6-12.5,9.1c-4.2,3.1-8.4,6.2-12.5,9.4C145.1,183.7,144.7,184,144.6,184.5z M221.4,214.4
	c-1.4,2.3-3.6,3.6-5.5,5.2c-4.1,3.4-8.5,6.4-13,9.3c2.1-1.1,4.2-2.4,6.2-3.7c4.3-2.8,8.2-6,12-9.5c0.3-0.3,1.6-0.6,0.4-1.4
	c0.1-0.8-0.2-0.8-0.9-0.6c-1.8,0.6-3.1,1.8-4.5,3c-11.4,9.4-23.3,17.7-39,19.2c3.2,0.3,6-0.3,8.7-1c9.1-2.2,17.1-6.7,24.7-12.2
	C214.3,220.1,217.8,217.2,221.4,214.4z M525.3,331.5c-1.4,2-2.3,4.3-3.3,6.7c3.3-0.6,11.5-6.7,13.3-9.9c-2.1,1.7-3.8,3.5-6.2,4.5
	c1.2-1.2,2.8-2,3.7-3.5c-1.4,1-2.6,2.2-4.5,2.8c0.3-0.9,0.8-1.1,1.2-1.4c0.4-0.3,0.9-0.5,0.6-1.3c-0.8,0.4-1.4,0.9-2.1,1.1
	C527.2,330.9,526.5,332,525.3,331.5c7.2-3.5,12.3-8.9,15.9-16.1c-0.5-0.2-0.8,0-1,0.1c-3.1,2.1-6,4.3-8.6,7
	C529.2,325.3,526.8,328,525.3,331.5z M570.4,337.7c-1.2-2.8-0.4-5.7-0.5-8.9c-4.1,5.7-3.9,11.7-3.1,17.8c4-5.2,6.9-11,9.3-17
	c-0.4,0.3-0.6,0.7-0.8,1c-1.2,1.8-1.8,3.9-3.4,5.4c0.2-0.5,0.3-1,0.5-1.4c2-3.2,3.5-6.7,5-10.1c1.2-2.6,2.2-5.3,2.9-8.1
	c-3.2,2.3-5.8,5.2-8,8.3c-0.9,1.2-1.3,2.5-1.6,3.9C569.9,331.8,570.2,334.7,570.4,337.7z M21.9,149.6c4.8,1.4,9.7,1.9,14.7,1.9
	c0.3,0,0.7-0.1,1-0.2c3.5-1.7,7-3.4,10.4-5.2c0,0,0-0.2,0-0.5c-7.8,0.8-15.6,2-23.4,2.8c5-1,9.9-1.9,14.9-2.5
	c7.2-0.8,14.4-2,21.1-4.8c6.2-2.6,12.6-4.1,19.1-5c13.8-1.8,27.7-1.5,41.6-1.8c7.2-0.2,14.4-0.6,21.6-1.6
	c-7.8,0.3-15.5,0.2-23.3,0.1c9.4-0.5,18.9-0.5,28.3-1.2c-2.8-0.6-5.6-1.3-8.5-1.6c-8-0.9-16.1-1.5-24.2-1.3
	c-10.8,0.3-21.5,1.5-32.2,3.3c-10.9,1.9-21.7,4.5-32.6,6.5c-10.6,2-21.2,4.4-31.2,8.5c-0.6,0.3-1.4,0.4-1.9,1.1
	c1.9,1,3.7,0.7,5.6,0.3C22.7,149.1,22,148.8,21.9,149.6z M461.2,219.9c2-8.1,2.2-16.2,0.3-24.3c-2.6-11.1-8.5-20.2-16.4-28.3
	c-2.1-2.1-4.1-4.3-6.2-6.5c6.3,13.2,8.6,27.2,9.5,41.6c0.2,3.9,1.2,7.8,1.8,11.6c0.1,0,0.2,0,0.3,0c-0.1-1.3-0.1-2.6-0.2-3.8
	c1.2,8.4,0.4,16.8,0.4,25.2c0.8-8.3,1.1-16.6,1-25c1.1,6.5,0.4,13,0.5,19.5c1.9-5.8,3.9-11.4,5.2-17.6c0.2,1,0,1.6-0.1,2.3
	c-0.9,4.5-2.3,8.9-3.8,13.2c-1.4,4.1-2.5,8.2-0.9,12.7c-0.1-7.9,2.5-15,4.8-22.3c1.4-4.5,3.1-9,3.3-13.8c0-0.7,0.1-1.4,0.1-2.1
	c0-0.7,0.1-1.4,0.2-2c0.7,5.7-0.4,11.2-2,16.6c0.5-0.1,0.6-0.8,1.1-0.5C460.4,217.6,459,219.2,461.2,219.9z M153.1,136.7
	c-2,0.2-3.9,0.4-5.9,0.5c-14.2,1-28.3,2.1-42.5,3.1c-13.5,1-26.9,2.2-40.4,3.3c-6.6,0.5-12.8,1.8-18.6,5.1c-1.6,0.9-3.4,1.7-5.1,2.5
	c0,0.1,0.1,0.3,0.1,0.4c18.5-1.1,36.9-2.8,55.3-4.7C115.3,145,134.4,141.7,153.1,136.7z M19.2,134.6c10-3.2,20.2-5.2,30.4-6.8
	c10.2-1.7,20.5-3.2,30.9-4.1c10.4-0.9,20.9-1.1,31.3-0.9c10.3,0.2,20.6,1.8,30.9,2.3c-0.6-0.2-1.1-0.2-1.7-0.3
	c-8.5-1.8-17.1-3.2-25.8-4.3c-9.8-1.3-19.7-2.1-29.7-2.2c-10.2-0.1-20.3,0.8-30.3,2.1c-8.4,1.1-16.5,3.2-24.3,6.5
	C26.5,128.8,22.5,131.2,19.2,134.6z M412.3,283.7c11.7-0.8,23.4-2.2,35.2-5c-18.6-3.2-36.6-4.5-54,4.2c9.9-5.2,20.3-7.8,31.8-7.3
	c-12.9-1.6-33.5,3.5-42.3,10.3c17.9,3.5,38.7,1.6,61.3-5.4C433.7,282.5,423.1,284,412.3,283.7z M285.3,75.6c1.6,1.7,3.3,3.3,4.9,5
	c7.4,8.1,11.9,17.8,15.3,28.1c4.5,13.4,6.8,27.2,8.8,41.1c0.4,2.8,0.4,5.8,1.8,8.6c0.2-1.3,0.4-2.3,0.6-3.4c0.1-0.5,0.1-1,0.2-1.6
	c0.7-8.7,0.5-17.4-1.2-26C311.6,106.6,302.9,88.5,285.3,75.6z M155.9,135c-3.8-1.3-7.8-1.4-11.7-0.9c-15.1,1.9-30.3,1.5-45.5,1.9
	c-8.8,0.2-17.6,0.7-26.2,2.9c-4.6,1.2-9.2,2.6-13.6,4.5C91.1,139.4,123.5,138.1,155.9,135z M64.8,192.5c0,0.4,0.3,0.5,0.6,0.6
	c2.4,1.4,4.9,2.4,7.7,2.7c3.2,0.4,6.3,0.9,9.5,0.7c8.4-0.6,16.1-3.3,23.7-6.6c15.4-6.6,29.6-15.6,44.2-23.7c1-0.6,2.2-1.2,2.5-2.8
	c-0.4,0.1-0.8,0-1,0.1c-1.9,1.6-4.3,2.2-6.5,3.4c-11.6,6-22.9,12.6-34.8,18.1c-13.9,6.4-28.3,10.3-43.7,7.6
	C66.4,192.6,65.6,192.1,64.8,192.5z M64.1,94.4c26.7,0.6,52.5,5.6,77.6,14.7c-0.2-0.3-0.5-0.4-0.8-0.5c-7.1-3.3-14.3-6.4-21.7-9.1
	c-13.6-5-27.6-8.3-42.2-8C72.6,91.6,68.3,93,64.1,94.4z M511.7,363.2c10.5-7.5,20.5-15.1,29.1-24.6c-6.2,3.4-12.7,5.6-19.5,7.2
	c-2.6,0.6-4,2-4.7,4.5c-1.1,3.8-2.6,7.5-4.4,11C512,361.8,511.5,362.3,511.7,363.2z M42.3,152.6c37.3,0.3,74.2-2.8,110.1-14.1
	C116.2,147.6,79.2,149.6,42.3,152.6z M164.6,117.8c-1.3-1.2-2.6-2.4-4.2-3.3c-15.7-8.9-32-16.4-49.3-21.8c-9.6-3-19.3-2.9-29.1-2.1
	c13.1,0.5,25.8,3.4,38,7.9c10.3,3.8,20.9,7.1,30.4,12.8c3.7,2.2,7.7,4.1,11.6,6.1c-3.9-2.7-8-5.1-12.2-7.4
	c-4.2-2.4-8.5-4.5-12.9-6.5c-4.2-2-8.6-3.6-12.9-5.5C138.4,102.8,151.7,110,164.6,117.8z M105.1,127.7
	c-14.8-0.8-76.2,11.8-80.6,16.4C50.9,137.2,77.6,131.5,105.1,127.7z M364.5,289.5c-0.7-0.2-1,0.1-1.3,0.3c-4.4,2.1-8.8,4.4-13.3,6.4
	c-13.3,6.1-27,11.4-41.6,13.8c-9.1,1.5-18.2,1.7-27.4,0.2c-3.9-0.6-7.7-1.7-11.5-2.5c9,3.6,18.3,5.5,28,4.9
	c18.1-1.1,34.8-7.1,51.1-14.6c4.6-2.1,9-4.6,13.5-7.1C362.7,290.4,363.5,290,364.5,289.5z M395.3,178.6c-0.6,2.5-2.2,4.6-3,7.1
	c0.5,0.3,0.6-0.6,1.1-0.2c-0.3,0.7-0.7,1.4-1,2.1c1.1-1.8,2.9-3.2,3.8-5c2.9-6,5.3-12.2,7.6-18.5c1.4-3.9-0.6-6.9-1.6-10.1
	c-0.4,1.6-0.5,3.1-0.8,4.7c-1.2,6.4-4.2,12.1-7.2,17.8c-0.7,1.3-0.2,2.9-1.1,4.2c0.4,0,0.6,0,0.6-0.2
	C394.4,179.9,394.8,179.2,395.3,178.6z M550,335.6c-8.6,10.3-19,18.6-29.8,26.6c0.6,0.2,0.9-0.2,1.3-0.3c8.2-3.5,15-9,21.9-14.6
	C547.2,344.1,548.2,339.7,550,335.6z M545,264.2c-0.5-2.4-1.4-4.6-3.1-6.4c-6.1-6.5-13-12.1-19.7-17.9c-2.2-1.9-4.4-3.8-6.7-5.8
	c-0.5,2.1,0.4,3.3,1.8,4.5C526.8,246.8,536.9,254.4,545,264.2z M158.3,229.5c4.2,0.1,8.8-1.4,13.1-3.4c19.3-8.9,34.8-22.2,45.7-40.6
	c1.5-2.5,2.8-5.1,4.2-7.7C207.6,204.4,185.8,220.7,158.3,229.5z M346.5,288.1c-0.8-0.4-1.4,0.1-2,0.4c-9.1,4.3-18.4,8.4-28,11.5
	c-11.3,3.6-22.8,6-34.7,5.8c-2.4,0-4.8-0.3-7.2-0.1C300.8,308.8,324.1,300.1,346.5,288.1z M489.4,192.1c0.1-0.5,0.2-0.7,0.1-0.8
	c-0.9-7.7-1.8-9-8.4-13c-0.5-0.3-1-0.6-1.5-0.9c-3.5-2.1-7-4.1-10.1-6.8c-0.2-0.2-0.5-0.4-0.8-0.6
	C475.5,177.4,482.8,184.2,489.4,192.1z M323.4,271.9c-0.7-0.8-1.4-0.2-2.1,0c-12,4.4-24.2,8.2-36.9,9.9c-1.1,0.1-1.8,0.8-2.8,1.5
	C289.2,284.3,318.5,276.2,323.4,271.9z M510.9,365.9c3.8-1.1,6.8-2.5,9.6-4.6c7.2-5.5,14.2-11,20.7-17.4c3.1-3,6-6.2,8.5-9.8
	c-5,6-10.5,11.4-16.6,16.1c1.3-1.9,3.2-3.3,4.8-4.9c1.7-1.6,3.3-3.2,4.9-4.9c1.6-1.7,3.1-3.4,4.6-5.2c1.4-1.7,2.7-3.6,4.1-5.3
	c-0.1-0.1-0.2-0.2-0.4-0.3C540.4,344.5,526.1,355.4,510.9,365.9z M441.5,286.1c-17.3,4.1-34.9,8.1-53.2,5.5c1.8,0.4,3.6,0.7,5.3,0.9
	c6.5,0.6,13,1,19.5,0.5C423.1,292.2,432.9,291.2,441.5,286.1z M257,300.5c0.3,0.1,0.5,0.2,0.8,0.3c10.9,4,22.1,5,33.6,3.9
	c14.2-1.4,27.6-5.8,40.6-11.3c0.5-0.2,1.1-0.3,1.1-1c-0.6-0.3-1.1,0.2-1.6,0.4c-5.4,2.2-10.8,4.3-16.3,6.1
	c-11.5,3.7-23.2,5.9-35.3,5.5C272.1,304.1,264.5,302.6,257,300.5z M420.2,143.9c0.2,0.8,0.4,1.4,0.6,2c1.2,4,2.7,8,3.1,12.1
	c0.4,4.2,4.1,5.1,6.2,7.5C429.9,160.8,423,145.9,420.2,143.9z M162,141.3c-3,1.2-6,2.3-8.9,3.6c-14.4,6.6-28.8,13.2-43.9,18.2
	c-5.9,1.9-11.6,4.3-18,4.5c-0.9,0-1.9,0.4-2.8,0.7c0.1,0.2,0.2,0.4,0.2,0.7C114.8,164.2,138.2,152.4,162,141.3z M464,188.7
	c1.5,3.1,3,6.1,4.1,9.4c3.1,9,4.2,18.2,2,27.6c-1.2,5.4-3.1,10.6-4.6,15.9c-1.1,3.8-2.1,7.7-2.3,11.7c0.5-1.8,0.7-3.7,1.3-5.5
	c2.2-7.1,3.8-14.4,6.9-21.2c1-2.2,1.7-5,0.4-7.6c-0.4-0.7-0.3-1.7,0.1-2c1.5-0.9,0.6-2.2,0.6-3.3c0-1.6-0.3-3.2-0.5-4.8
	C470.7,201.5,468,194.9,464,188.7z M304.5,284.5c-11.6,3.4-23.6,3.3-35.8,5.3C279.7,291.8,293.6,289.7,304.5,284.5z M102.2,77.2
	c6.9,2,13.5,4.8,20,7.8c6.6,3,12.9,6.6,19.1,10.4c6.1,3.8,11.7,8.1,17.7,11.9C141.4,92.3,115.5,78.6,102.2,77.2z M382.1,353.9
	c20.7,2.6,36.7-6.8,51-20.3c-0.3-0.1-0.5,0-0.6,0.1c-3.7,3-7.5,5.9-11.5,8.5c-8,5.3-16.5,9.6-26,11.3
	C390.7,354.3,386.4,353.7,382.1,353.9z M176.8,236.8c6.5,1,12.8-0.3,18.8-2.6c11.2-4.3,20.5-11.4,29.3-19.5c0.1-0.1,0.1-0.3,0.2-0.5
	c-1,0.1-1.8,0.6-2.5,1.2c-3.1,2.7-6.2,5.5-9.6,7.8c-9.2,6.3-18.3,12.6-30,13.1C180.9,236.4,178.8,236.9,176.8,236.8z M295.9,310.4
	c9.2,1.2,42.9-7.9,49.3-13c-2.8-0.5-5.3,1.1-8.1,2.2c-0.8,0.3-1.6,0.7-2.4,1C322.2,305.6,309.4,309.3,295.9,310.4z M397.4,116.7
	c-0.2,0.4,0,0.6,0.2,0.8c6.7,10.1,10.4,21.4,11.7,33.4c0.1,0.5,0.2,0.9,0.5,1.3c0.4,0.3,0.7,1,1.2,0.8c0.6-0.2,0.4-0.9,0.3-1.4
	c-1-7.4-3-14.6-6-21.4c-1.6-3.7-3.4-7.4-5.9-10.8C398.9,118.5,398.7,117.1,397.4,116.7z M434,337.8c-1.1,0.5-2.3,1-3.3,1.7
	c-2.2,1.5-4.3,3.1-6.6,4.6c-7.7,5.1-15.9,9.2-25.1,10.8c-3.9,0.7-7.8,0.8-11.8,0.7c8.2,0.9,16-0.3,23.7-3.3
	C419.5,349,427.1,343.9,434,337.8z M232.5,243.1c-10.2,7.6-22.4,8.3-34.4,10C211.1,254.9,222.4,251.1,232.5,243.1z M507.4,224.5
	c0.3-4.6,0.1-9.1-0.3-13.6c-0.2-1.9-1.5-3.4-2.5-5c0,2.5,0.1,4.9,0.3,7.3c0.2,3.9,0.3,7.7,0.2,11.6c-0.1,1.7,0.5,3.1,2.1,3.9
	c1.3-2.4-1-3.7-1.8-5.5C506.4,223.4,506.5,224.3,507.4,224.5z M166.1,233.4c7.1,0.8,14.2,0,24.6-5.2c8.3-4.2,18.7-12.1,20.3-15.4
	c-3.7,3.2-7.2,6.1-11,8.7C189.8,228.5,179,233.7,166.1,233.4z M159.2,231.5c5.2,1,10.1-0.2,14.9-1.9c10.1-3.5,18.8-9.3,26.7-16.3
	C188.5,222.8,175.4,230.7,159.2,231.5z M471.9,350c2-0.3,3.5-0.6,5-0.7c1.3-0.1,2.1-0.6,2.7-1.8c1-2.1,2.2-4.1,3.2-6.2
	c1-1.9,1.9-3.8,2.9-5.8C481.4,340.5,477,345.3,471.9,350z M217.3,212.7c-0.2-0.3-0.3-0.5-0.5-0.8c-11.2,10.1-23.3,18.9-38.2,22.6
	C194.1,231.8,206.1,222.9,217.3,212.7z M236.2,221c-0.6,0-0.9,0.5-1.2,0.9c-1.8,2.1-3.6,4.3-5.5,6.3c-7.1,7.5-15.1,13.6-25,17.2
	c-4.4,1.6-8.9,1.8-13.4,2.2c-3.4,0.3-6.9,0-10.4-0.4c7.8,1.8,16.8,1.3,24.5-1.5C218.3,240.9,227.9,231.7,236.2,221z M487.1,347.7
	c1.5-0.2,2.7,0.1,3.5-1.1c4.4-6.6,7.6-13.7,11.4-20.6c-3.7,4.1-6.4,8.8-9.1,13.6c-0.4,0.8-0.8,1.7-1.5,2.1
	C489.1,343,488.6,345.6,487.1,347.7z M64.1,190.8c-0.2-0.7-1.1-0.6-1.2-1.2c0.1,0,0.1-0.1,0.1-0.1c0.4,0.2,0.7,0.3,1.1,0.5
	c3.5,1.6,7.2,2.6,11.1,2.3c4.7-0.4,9.3-1.2,13.8-2.6c4.7-1.4,9.3-3.1,13.7-5.3c-7.1,2.6-14.3,5.1-21.9,6.2c-7.8,1.1-15.1-1-22.5-2.6
	C60.2,189.1,62,190.3,64.1,190.8z M183,238c0.1,0.1,0.1,0.3,0.2,0.4c15.5-0.8,28.4-7.2,39.5-18.3c-0.4-0.1-0.5-0.1-0.5-0.1
	c-0.5,0.4-0.9,0.8-1.3,1.1c-10.1,7.5-20.1,15.2-33.4,16.2C185.9,237.4,184.4,237.8,183,238z M236,237.3c1.3,0.1,1.7-0.7,2.3-1.2
	c7.3-6.6,13.3-14.3,18.7-22.4c0.3-0.4,0.5-0.8,0.7-1.2c0.2-0.4,0.4-0.8-0.1-1.1c-0.4-0.2-0.6,0.1-0.8,0.4c-0.3,0.4-0.5,0.8-0.8,1.2
	c-4.2,6.4-8.7,12.6-14,18.2C240.1,233.2,238.1,235.1,236,237.3z M515.2,238.3c10.5,9.6,22.1,18.2,30.4,30
	C538.1,255.7,526.1,247.5,515.2,238.3z M255.2,297.8c26,7.7,50,0.7,73.6-9.7c-0.8,0.1-1.6,0.4-2.4,0.7c-13,5.6-26.3,10-40.4,11.4
	c-6.5,0.7-12.9,0.8-19.4-0.2C262.8,299.4,259,298.5,255.2,297.8z M167.4,106.9c-1.7-3.6-23.5-18.2-30.4-20.6
	C147.8,92.2,157.4,99.8,167.4,106.9z M291.5,285.5c12.7-2.4,25.2-5.2,36.7-11.2C316.2,278.9,303.8,282,291.5,285.5z M496.1,200.9
	c-0.8-5.8-0.8-11.8-6.4-15.8C491.1,190.7,491.3,196.7,496.1,200.9z M81,109.2c16.5,0.7,32.5,5.1,49.4,6.9
	C113.8,112.1,97.5,109.7,81,109.2z M291.8,275.2c8.6-0.8,16.3-3.7,24-6.7c-0.8-1.1-1.6-1.1-2.6-0.7c-6.2,2.6-12.5,4.6-19.1,5.7
	C293.3,273.7,292.5,274.1,291.8,275.2z M467,224.8c3.7-11.3,0-28.4-4.7-35.4c5.3,12.1,6.7,24.2,3.1,36.7c0.8-0.9,0.8-0.9,1-2.3
	C467,223.9,466.6,224.6,467,224.8z M438,343.4c-12.2,8.6-24.7,15.3-39.9,14.7C408.9,360.3,434.3,351.1,438,343.4z M513.4,347.8
	c-1,0.7-1.1,1.5-1.3,2.2c-1.9,5.7-4.3,11.2-7.7,16.3c-0.3,0.5-1.3,1.2-0.7,1.7c0.7,0.5,1.5-0.3,2-1c0.4-0.5,0.7-1,1.1-1.6
	c2.9-4.6,5.2-9.4,6.8-14.6c0.2-0.5,0.6-1.1,0.3-1.9c-0.3,0.9-0.6,1.6-0.9,2.3c-0.1,0-0.2-0.1-0.2-0.1
	C512.9,350.2,513.1,349.2,513.4,347.8z M470.4,179.3c5.3,6.1,10.5,12.3,14.3,19.5c3.8,7.2,5.9,14.8,6.8,22.8
	C491.1,204.2,482,191.1,470.4,179.3z M232.1,185.6c-10.7,17.6-25.4,31-43,41.6C207.1,217.1,221.9,203.7,232.1,185.6z M181.5,172
	c5.5-8,11.3-15.6,17.9-22.8C190.1,154.3,186.3,163.6,181.5,172z M447.8,329.9c-3.3,2.6-6.6,5.3-9.9,7.9
	c-7.3,5.7-14.9,11.1-23.5,14.8c-4.2,1.8-8.6,3.1-13.1,4c4.6-0.3,9.1-1.4,13.2-3.3C427.1,347.6,437.5,338.8,447.8,329.9z M238.8,82
	c-1-1.8-2-3.6-3.1-5.4c-4.3-7.2-8.9-14.3-15.6-19.7c-2-1.7-4.3-2.9-6.1-4.9c-1.8-1.9-4.3-2.7-6.6-3.8c-0.3-0.1-0.7-0.3-1,0.6
	c7.1,3.3,13.7,7.7,18.9,13.7C230.5,68.5,234.6,75.3,238.8,82z M238.3,237.2c14.7-12.7,23.9-29.4,33.4-45.9
	C261.8,207.5,252.6,224.2,238.3,237.2z M143.5,164.4c-8.4,4.3-16.4,9.2-24.8,13.5c-8.4,4.2-16.8,8.3-25.6,11.4
	C102.3,187.2,130.6,173.2,143.5,164.4z M156.3,107.8c-15.2-12.1-31.4-22.3-50-28.3C124.7,85.8,140.8,96.2,156.3,107.8z M235.8,230.1
	c12-12.4,20.1-27.5,28.8-42.2C255.7,202.5,247.2,217.3,235.8,230.1z M138.6,150c-13.7,5.4-27.2,11.6-41.3,15.9
	C111.6,161.9,125.3,156.3,138.6,150z M333.3,276.7c-0.9-0.9-1.7-0.8-2.6-0.3c-1.7,0.9-3.5,1.8-5.3,2.6c-4.5,2-8.9,4-13.4,6
	C319.4,283,326.6,280.6,333.3,276.7z M189.3,219.1c12.9-7.7,32.1-28.1,35-37.3C215.6,197.3,203,208.7,189.3,219.1z M373.1,82.5
	c6.8,9.2,12.7,19,20,27.8C386.5,101,381,90.9,373.1,82.5z M133.1,190.6c15.2-9,28.4-20.7,42.7-30.9c-7.3,4.8-14.3,10.2-21.2,15.5
	C147.6,180.6,140.5,185.8,133.1,190.6z M168,224.4c8.5-2.7,25.3-14.3,26.7-18.6C186.3,213,177.9,219.8,168,224.4z M539.9,269.2
	c-2.5-5.8-20.7-24.4-24.8-25.3C523.9,251.8,533.1,259.3,539.9,269.2z M250.5,56.3c8.7,8.2,14,18.5,18.3,29.4
	C265.4,73.9,260.1,63.7,250.5,56.3z M269.8,82.3c0.8-4.3-8.9-20.3-14.4-22.6C262,66.2,266.3,73.8,269.8,82.3z M171.1,232.2
	c14.7-2.4,26.3-10.5,37.1-20C197.1,221.1,185.4,229.1,171.1,232.2z M406.5,291.2c-1.7,0-3.5,0.1-5.2,0c-7-0.3-14-1.1-20.8-2.9
	c-1.2-0.3-2.3-0.4-3.3,0.8C387,291.3,396.7,291.9,406.5,291.2z M503.2,218.5c0.1-5-0.2-10-0.6-15c-0.1-1.7-0.8-3-2.3-4.6
	C501.7,205.6,500.6,212.3,503.2,218.5z M330,292.1c-11.9,4.5-23.8,8.8-36.4,10.8C306.3,301.3,318.4,297.5,330,292.1z M295,288.9
	c10.3-1.3,19.3-6.1,28.6-10.3C314,282,304.8,286.4,295,288.9z M520.5,276.7c1.6,6,7.5,18.7,9.7,21
	C527.6,290.3,524.3,283.4,520.5,276.7z M251.7,276.9c1.3,0.6,2.2,1.1,3.4,0.6c3.8-1.6,7.5-3.6,10.9-6c0.3-0.2,1-0.4,0.7-1
	c-0.3-0.5-0.9-0.4-1.4-0.2c-0.3,0.1-0.5,0.2-0.8,0.4C260.7,273.2,256.6,275.3,251.7,276.9z M195.4,245.8
	c11.6-1.7,20.9-7.5,29.2-15.5C215.9,237.4,206.6,243.3,195.4,245.8z M248.1,274.9c0.8,0.8,1.4,0.9,2.1,0.6c4.5-1.5,8.7-3.6,12.6-6.2
	c0.3-0.2,0.7-0.4,0.5-0.8c-0.1-0.4-0.5-0.4-0.9-0.4c-0.4,0.1-0.9,0.2-1.3,0.4C257.1,271.1,252.9,273.4,248.1,274.9z M129.6,117.3
	c9.1,2.9,18.5,4.2,27.7,6.5C148.3,120.5,139,118.6,129.6,117.3z M346.8,292.9c-10.4,3.7-20.4,8.6-31,11.6
	C326.6,301.9,336.8,297.8,346.8,292.9z M260.3,266.8c-1-0.9-1.8-0.7-2.7-0.1c-3.5,2.2-7.1,4.1-10.9,5.6c-0.4,0.2-1.3,0.1-0.9,0.9
	c0.3,0.7,1,0.4,1.5,0.2c2.7-1,5.4-2.1,7.9-3.5C256.9,269.1,258.6,268.1,260.3,266.8z M418.1,329.3c-4.7,3.6-9.2,6.9-14,9.7
	c-4.9,2.9-9.9,5.3-15.3,7.1C395.9,345,416.3,333.4,418.1,329.3z M395.5,293.5c15.4,2.3,30,0.4,33.4-1.7
	C417.7,293.9,406.7,294.6,395.5,293.5z M230.8,47.9c10.3,7.5,17.6,17.5,24.3,28.1C248.7,65.1,241.6,54.9,230.8,47.9z M242.5,226.2
	c9.3-10.9,16.2-23.3,23.3-35.7C258.3,202.5,251.4,215,242.5,226.2z M513.5,224.6c1-10.4-2.5-35.2-5.5-39.1c3.6,10.7,4.6,21.5,5,32.5
	C513,220.2,512.5,222.4,513.5,224.6z M559,323.1c-5.2,5.4-8.1,12.1-10.7,19C552.7,336.3,554.4,328.9,559,323.1z M427.1,311.3
	c-11,8.5-21.5,17.8-33.5,25C406,329.6,416.3,320.1,427.1,311.3z M154.1,154.7c-12.7,7.7-25.3,15.7-38.5,22.6
	C120.7,175.4,149.9,158.3,154.1,154.7z M270.5,280.6c4.8,1.4,7.4-2.2,10.5-4.5c-1.3-0.1-2.5-0.8-3.7,0
	C275.2,277.7,272.9,279.2,270.5,280.6z M527.9,266.7c0-2-0.9-3.3-2-4.5c-1-1.1-2-2.3-3-3.4c-2.4-2.5-4.8-5-7.7-6.9
	C519.5,256.8,524.1,261.3,527.9,266.7z M287.6,279.1c6.7-1.6,13-3.3,19.2-5.5c-4.5,1.1-9,2.2-13.6,2.5
	C290.8,276.2,289.2,277.1,287.6,279.1z M576.1,289.1c-1.3,5.5-0.1,10,2.6,14.2C578.3,298.7,577.5,294,576.1,289.1z M230.5,281.3
	c1.7,1.2,3.5,1.8,5.5,1.9c3.2,0.2,6.5,0.1,9.7,0c0.5,0,1.3,0.1,1.3-0.5c0-0.7-0.7-1.1-1.4-1c-1.4,0.1-2.9,0.3-4.3,0.4
	c-2.1,0.1-4.3,0.6-6.4-0.1C233.5,281.4,232,281.2,230.5,281.3z M153,108.4c-8.7-4.8-17.5-9.6-27.2-12.3
	C135,100,144.2,103.9,153,108.4z M148.6,153.3c5.4-1.6,23-10.6,25.9-13.2C165.8,144.6,157.3,149,148.6,153.3z M233.9,219.8
	c-6.4,4.6-11.4,10.7-17.5,15.6C221.1,232.6,231.2,223.6,233.9,219.8z M515.4,240.4c7.5,6.9,15.6,12.9,22.9,20.7
	C536.4,257.6,520.7,244,515.4,240.4z M468.8,189.8c2.9,5.2,5.2,10.6,6.5,16.4c1.3,5.8,1.8,11.6,1.3,17.5
	C478.1,211.5,475.5,200.1,468.8,189.8z M414,155.8c0.6-5.6-4.2-22.5-7.2-25.8C410.5,138.3,412.5,147,414,155.8z M515.5,253.9
	c0,1.4,10,12.6,11.3,12.7C523.7,261.8,519.7,257.9,515.5,253.9z M575,299c-1.9-6.5-4.7-12.8-6.6-19.4
	C569.4,286.4,571.4,292.9,575,299z M263.3,232c7.5-9.5,13.3-20.1,19.4-30.4C276.2,211.7,270.5,222.3,263.3,232z M195.8,215.7
	c9.4-7.2,18-15.2,24.6-25.1c-3.5,4.7-7.3,9.1-11.4,13.3C204.9,208.1,200.4,211.9,195.8,215.7z M515.8,258.5c0.8,0.9,0.4,2.2,1.2,3.1
	c1.7,2.2,3.4,4.4,5.1,6.6c0.5,0.7,1.1,1.1,2,0.8C522.1,264.8,519,261.7,515.8,258.5z M423.8,294.6c-9,1.4-18,1.1-27,0.1
	C405.8,296.3,414.8,296.8,423.8,294.6z M227.2,236.3c4.7-3.4,8.9-7.3,12-12.3C235,227.9,231.3,232.3,227.2,236.3z M475.1,224.3
	c-0.3,1.5-0.7,2.9-1,4.4c-1.4,6.6-4.1,12.9-5.7,19.5c-0.9,3.6-1.5,7.3-0.9,11.1c-0.2-3.4,0.2-6.7,1-10c1.3-5.7,3.5-11.1,5.1-16.6
	C474.3,229.9,475,227.1,475.1,224.3z M432.8,183.8c-1.2-6.8-4.3-12.8-7.6-18.8c-0.4,0.4-0.4,0.8-0.3,1
	C428,171.8,430.7,177.7,432.8,183.8z M328.5,263c-1-1.4-2.2-1.1-3.2-0.5c-1.1,0.6-2.3,1.1-3.4,1.7c-1.3,0.6-2.6,1.2-4,1.9
	c0.8,0.7,1.4,1,2.2,0.7C322.9,265.5,325.7,264.2,328.5,263z M269.2,70.8c3.2,4.9,5.6,10.3,8.2,15.5
	C276.5,80.1,273.3,75.2,269.2,70.8z M427.7,352.2c5.7-2.3,25.7-16.9,28.3-20.5C446.9,339.2,438,346.6,427.7,352.2z M162,152.6
	c8.5-4.8,17.1-9.6,25.6-14.4C178.7,142.4,170.3,147.3,162,152.6z M355.9,254.3c-8.1,2.2-15.7,5.4-23.1,9c7.5-2.9,14.9-6,22.5-8.8
	C355.5,254.5,355.7,254.4,355.9,254.3z M196.2,229.4c6.1-2.3,22.8-14.8,24.7-18.6C213.2,218.2,205.2,224.4,196.2,229.4z M424.3,351
	c10.3-5.2,19.1-12.5,27.8-19.9C443.2,338.2,434.4,345.5,424.3,351z M223.2,177.1c-4.8,9.5-10.9,18.1-18.1,25.9
	C212.8,195.6,218.7,186.8,223.2,177.1z M535.4,345.6c-8,7.2-16.6,13.5-25.3,19.8C519,359.5,527.6,353,535.4,345.6z M283,203.4
	c-5.8,9.3-11.2,18.8-17.5,27.8C272.2,222.5,277.5,212.9,283,203.4z M263.8,291c4.6,1.8,9,1.5,14,0.5c-2.5-0.2-4.7,0.1-6.5-0.6
	C268.7,290,266.4,289.9,263.8,291z M120.1,173.8c9.5-4.9,18.7-10.6,27.7-16.4C138.6,162.9,129.5,168.6,120.1,173.8z M169.9,221.8
	c8.6-3.9,16.1-9.4,22.9-15.9C185.7,211.9,178.3,217.6,169.9,221.8z M237.7,51.7c6.3,5.7,11.6,12.4,16.4,19.4
	C249.4,63.9,244.7,56.8,237.7,51.7z M206.2,210.3c-7,5.9-14.2,11.7-22.3,16.1C192.2,222.2,199.5,216.7,206.2,210.3z M179.1,220
	c4.9-2.2,18.4-12.7,20.4-15.8C192.7,209.8,186.4,215.6,179.1,220z M499.3,207.4c-0.1-3.6-0.4-7.2-1-10.7c-0.2-1.2-0.6-2.2-1.9-3.3
	C497.8,198.3,497.3,203.1,499.3,207.4z M173,195.1c-6.5,4.7-13.7,8-21.2,10.7C159.7,203.7,166.8,200.2,173,195.1z M334.1,264.2
	c7.7-2.9,15.3-6.2,23-9.2C349.3,257.7,341.6,260.8,334.1,264.2z M508.5,189.8c0.6,3.2,1.3,6.4,1.8,9.7c0.5,3.3,0.7,6.7,1.1,10
	c0.3,3.2,0.1,6.4,0.8,9.6C512.1,209.2,511.3,199.4,508.5,189.8z M203.4,231.7c4.5-1.5,19.1-11.9,20.9-14.9c-3.3,2.6-6.5,5.5-9.9,7.9
	C210.8,227.2,207.1,229.5,203.4,231.7z M422.8,347.2c4.3-2,21.4-14.8,23.4-17.6C438.5,335.8,431.1,342.1,422.8,347.2z M336,304.4
	c6.6-3.1,14.1-4.1,20-8.9C349.4,298.6,342.7,301.5,336,304.4z M223.7,55.9c2.1,1.8,4.2,3.6,6.2,5.5c1.9,1.9,3.6,4.1,5.2,6.3
	c1.6,2.2,3.1,4.4,4.6,6.7C235.7,67.1,230.8,60.5,223.7,55.9z M397.2,323.7c9.3-3.1,17.5-8.2,25.5-13.8
	C414.4,315.1,406.3,320.3,397.2,323.7z M268,72.1c3.3,5.8,5.8,11.8,8.2,18C274.4,83.7,272.4,77.3,268,72.1z M420.7,157.9
	c-1.6-7.9-3.3-15.7-7.6-22.6C416.8,142.4,418.7,150.2,420.7,157.9z M425.3,329.7c-6.9,5.2-13.8,10.3-21.4,14.4
	C411.7,340.4,418.6,335.2,425.3,329.7z M195.7,226.5c5.1-2.2,18.4-12.3,19.5-15C209.1,217.4,202.6,222.2,195.7,226.5z M273.7,274.8
	c-1.1-0.2-8.2,3.5-10.4,5.3C265.1,280.4,271.1,277.4,273.7,274.8z M231.1,184.3c-3.5,5.9-7.6,11.5-11.8,17
	C224,196.2,228,190.6,231.1,184.3z M213.9,202.6c6.1-6.2,10.9-13.4,14.6-21.2C224.4,189.1,219.5,196.1,213.9,202.6z M242.7,75.1
	c-3.1-5.3-6.5-10.5-11.5-14.4C235.7,65,239,70.2,242.7,75.1z M253.5,286.5c3,2.4,5.7,0.1,8.9-0.1
	C259.2,284.2,256.4,286.4,253.5,286.5z M214.8,173.7c-3.8,6.9-7.9,13.7-12.8,19.9C207.4,187.8,211.3,180.9,214.8,173.7z
	 M450.7,330.9c-6.7,5.1-13.1,10.4-20,15.2C437.8,341.7,444.3,336.3,450.7,330.9z M395.5,186.4c3.2-5,9.5-20.9,9.3-23.6
	C402.4,171.1,398.9,178.8,395.5,186.4z M179.5,196.9c-5,4.2-10.7,7.1-16.5,10.1C169,204.4,174.9,201.6,179.5,196.9z M251.4,208
	c3.9-6.4,7.7-12.9,11.6-19.3C258.5,194.7,255,201.4,251.4,208z M207.4,211.2c-5,3.4-9.4,7.5-14.5,10.9
	C198.1,219,203,215.4,207.4,211.2z M275.2,292.7c4.8,0.4,9.6,0.3,14.3-1.4c0-0.1,0-0.3,0-0.4C284.7,291.4,279.9,292.1,275.2,292.7z
	 M512.4,367.3c4.9-0.7,20.9-8.5,23.5-11.3c-3.8,2.3-7.5,4.5-11.5,6.4C520.5,364.2,516.4,365.7,512.4,367.3z M417.1,219
	c0.6-8.9,1.8-17.9,0.8-26.8C418.2,201.1,417.5,210.1,417.1,219z M323.4,300.2c8.2-2.8,16.1-6.3,23.8-10.1
	C339.3,293.6,331.4,297.1,323.4,300.2z M142.6,166c-6.1,3.4-12.2,6.8-18.2,10.2C130.7,173.2,136.8,169.9,142.6,166z M269.8,272.6
	c-0.5-0.2-0.8-0.4-0.9-0.3c-3.9,2.2-7.5,4.7-11.6,6.5C261.9,277.8,265.8,275.4,269.8,272.6z M553.2,357.4c-2.8,7.2-6.8,13.7-11.1,20
	C547.3,371.5,550.6,364.7,553.2,357.4z M306.6,288.2c-5.1,1.1-10.4,1.8-15.3,3.6C296.5,291,301.8,290.3,306.6,288.2z M434.9,157.4
	c2.2,5,4.1,10.2,6.2,15.2C439.9,167.2,437.7,162.2,434.9,157.4z M496.6,209.4c0.6-3.9-2.1-6.4-3.8-9.4
	C493,203.5,495.7,206.1,496.6,209.4z M224.8,58.2c4.5,4,7.8,8.9,11.3,13.7C233.2,66.6,229.8,61.7,224.8,58.2z M248.5,284.6
	c0.2-0.4-0.1-0.5-0.3-0.5c-3.6,0-7.3,0-10.9-0.1c2.2,1.1,4.5,2.1,7.2,1.7c-1.3-0.4-2.5,0-3.6-0.8C243.5,284.6,246,285.4,248.5,284.6
	z M158.8,126.9c-8.9-2.1-17.9-3.9-26.9-5.2C140.8,123.2,149.8,125.2,158.8,126.9z M289.6,285c-4.5,0.9-9.2,0.7-13.7,1.6
	C280.6,286.9,285.2,286.8,289.6,285z M470.2,350.3c5.5-4.8,10.3-10,14.6-15.8C480.3,340,475.4,345.3,470.2,350.3z M358.1,262.6
	c6-2.1,11.9-4.3,18-6.1C369.9,257.8,363.9,260,358.1,262.6z M413.9,345.6c5.6-3,10.8-6.6,15.6-10.7
	C424.3,338.4,419.2,342.3,413.9,345.6z M396.5,187.2c2.8-4.5,8.6-18.8,8.9-21.9C402.9,173,399.8,180.2,396.5,187.2z"/>
</svg>
