<?xml version="1.0" encoding="utf-8"?>
<!-- Generator: Adobe Illustrator 20.0.0, SVG Export Plug-In . SVG Version: 6.00 Build 0)  -->
<!DOCTYPE svg PUBLIC "-//W3C//DTD SVG 1.1//EN" "http://www.w3.org/Graphics/SVG/1.1/DTD/svg11.dtd">
<svg version="1.1" id="Layer_1" xmlns="http://www.w3.org/2000/svg" xmlns:xlink="http://www.w3.org/1999/xlink" x="0px" y="0px"
	 viewBox="0 0 50 50" style="enable-background:new 0 0 50 50;" xml:space="preserve">
<style type="text/css">
	.st0{fill:none;stroke:#FFFFFF;stroke-width:2;stroke-linecap:round;stroke-miterlimit:10;}
	.st1{fill:none;stroke:#FFFFFF;stroke-width:2;stroke-linecap:round;stroke-linejoin:round;stroke-miterlimit:10;}
</style>
<path class="st0" d="M31.6,23.8L10,45.5c-0.7,0.7-1.8,0.7-2.5,0l-3.8-3.8C3,41,3,39.9,3.7,39.2L24.9,18"/>
<path class="st0" d="M34.2,22.6c0,0,0.2,0.2,1.4,1.4c0.8,0.8,0.7,2.3,0.4,2.8c-0.2,0.3-0.2,0.7,0,0.9c0.2,0.2,3.5,3.5,3.5,3.5
	c0.7,0.7,1.8,0.7,2.5,0l5.5-5.5c0.7-0.7,0.7-1.8,0-2.5c0,0-3.3-3.3-3.5-3.5c-0.2-0.2-0.5-0.2-0.8-0.1c-0.5,0.3-2.1,0.5-2.9-0.3
	c-1.1-1.1-1.7-1.7-1.7-1.7"/>
<path class="st1" d="M38.6,17.6c-0.4-0.4,0-0.8,0-0.8c0.3-0.3,0.5-0.8,0.5-1.3c0-0.5-0.2-0.9-0.5-1.3l-3.8-3.8c0,0,0,0-0.1-0.1
	c-1.9-1.9-3.9-3.9-4.4-4.4C27.3,3,14.3,3,14.3,3s4,1.8,8.7,6.6c3.8,4,4,6.3,2.7,7.6c0,0-0.2,0.2-0.8,0.9s-0.4,1.3,0,1.7
	s3.3,3.3,4.3,4.3s1.9,0.4,2.4-0.1c0.1-0.1,0.7-0.7,1.3-1.3c0.4-0.4,0.9-0.5,1.4,0"/>
</svg>
