<?xml version="1.0" encoding="utf-8"?>
<!-- Generator: Adobe Illustrator 19.2.0, SVG Export Plug-In . SVG Version: 6.00 Build 0)  -->
<svg xmlns="http://www.w3.org/2000/svg" xmlns:xlink="http://www.w3.org/1999/xlink" version="1.1" id="Layer_1" x="0px" y="0px" viewBox="0 0 50 50" style="enable-background:new 0 0 50 50" xml:space="preserve" fill="#000000">
<ellipse style="fill:none;stroke:#000000;stroke-width:2;stroke-linecap:round;stroke-linejoin:round;stroke-miterlimit:10" cx="9" cy="24" rx="6" ry="19" fill="#000000"/>
<g fill="#000000">
	<path d="M17.434,4.051c-1.403-0.089-2.674,0.81-3.783,2.377c0.361,0.637,0.691,1.349,0.992,2.12   c0.903-1.628,1.822-2.505,2.578-2.505c0.023,0,0.046,0,0.069,0.002c2.083,0.15,4.497,7.189,3.697,18.312   c-0.799,11.121-4.161,17.744-6.277,17.595c-0.318-0.023-0.643-0.225-0.964-0.559c-0.346,0.631-0.719,1.196-1.123,1.679   c0.578,0.517,1.225,0.824,1.943,0.876c0.072,0.005,0.143,0.007,0.213,0.007c4.421,0,7.518-9.936,8.202-19.454   C23.677,14.832,21.969,4.378,17.434,4.051z" fill="#000000"/>
	<path d="M12.275,15.152c-0.267-1.508-0.589-2.811-0.931-3.913c-1.206,3.523-2.015,7.929-2.326,12.258   c-0.412,5.727,0.02,11.728,1.382,15.738c0.396-0.815,0.803-1.913,1.178-3.27c-0.626-3.101-0.927-7.289-0.564-12.325   C11.245,20.409,11.7,17.569,12.275,15.152z" fill="#000000"/>
</g>
<g fill="#000000">
	<path d="M16.634,17.358C16.879,19.527,17,21.782,17,24c0,0.12-0.002,0.241-0.003,0.361c0.029-0.158,0.052-0.313,0.082-0.471   c0.716-3.757,1.669-6.959,2.698-9.568c-0.177-1.317-0.404-2.452-0.656-3.409C18.19,12.815,17.347,15.019,16.634,17.358z" fill="#000000"/>
	<path d="M16.074,34.32c-0.38,1.955-0.879,3.762-1.502,5.314c0.093,0.463,0.2,0.892,0.317,1.3c0.341-0.085,0.927-0.714,1.592-1.929   c-0.079-0.426-0.149-0.886-0.209-1.388C16.151,36.594,16.089,35.486,16.074,34.32z" fill="#000000"/>
	<path d="M26.094,4.527c-1.46-0.275-2.91,0.561-4.271,2.128c0.314,0.637,0.595,1.341,0.841,2.105   c1.075-1.49,2.084-2.287,2.856-2.287c0.068,0,0.135,0.006,0.199,0.019c2.145,0.409,3.804,7.971,1.633,19.357v0   c-0.967,5.073-2.494,9.712-4.3,13.061c-1.861,3.454-3.452,4.513-4.34,4.338c-0.106-0.02-0.215-0.063-0.326-0.126   c-0.499,0.545-1.03,0.979-1.591,1.289c0.462,0.412,0.973,0.693,1.543,0.801c0.192,0.037,0.386,0.055,0.58,0.055   c1.953,0,3.979-1.853,5.896-5.408c1.9-3.524,3.5-8.367,4.504-13.636v0C31.197,16.362,30.707,5.407,26.094,4.527z" fill="#000000"/>
</g>
<g fill="#000000">
	<path d="M37.582,9.417c-1.74-0.819-4.013,0.492-6.373,3.018c0.088,0.92,0.136,1.887,0.149,2.884   c2.163-2.716,4.013-4.165,5.023-4.165c0.13,0,0.246,0.024,0.347,0.072c0.488,0.23,1.136,1.663,0.475,5.572   c-0.607,3.588-2.115,8.046-4.245,12.555c-2.129,4.509-4.616,8.505-7.001,11.252c-0.403,0.464-0.778,0.86-1.129,1.207   c-1.244,1.962-2.538,3.267-3.868,3.931c0.213,0.054,0.432,0.089,0.661,0.089c1.606,0,3.6-1.329,5.846-3.916   c2.502-2.881,5.095-7.04,7.3-11.709s3.771-9.312,4.408-13.076C39.887,12.914,39.337,10.247,37.582,9.417z" fill="#000000"/>
	<path d="M24.058,23.269c-0.022,0.436-0.047,0.872-0.078,1.305c-0.121,1.684-0.317,3.389-0.582,5.06   c0.502-1.274,1.069-2.601,1.722-3.983c0.6-1.27,1.21-2.456,1.821-3.57c0.219-1.669,0.35-3.198,0.404-4.579   C26.194,19.282,25.079,21.239,24.058,23.269z" fill="#000000"/>
</g>
<g fill="#000000">
	<path d="M32.592,27.743c0.901-2.007,1.668-3.982,2.28-5.859c-1.679,1.822-3.344,3.872-4.879,6.012   c-0.479,2.229-1.059,4.368-1.724,6.348c0.975-1.687,2.09-3.425,3.32-5.141C31.923,28.634,32.258,28.186,32.592,27.743z" fill="#000000"/>
	<path d="M46.757,15.367c-1.514-1.086-3.885-0.286-6.559,1.644c-0.016,0.099-0.022,0.186-0.039,0.287   c-0.148,0.877-0.352,1.804-0.594,2.763c2.958-2.586,5.228-3.641,6.027-3.068c1.437,1.029-0.561,8.225-6.958,17.157   c-0.322,0.449-0.218,1.074,0.23,1.396c0.449,0.321,1.074,0.218,1.396-0.23C46.047,27.235,50.137,17.789,46.757,15.367z" fill="#000000"/>
</g>
</svg>
