<svg id="Layer_1" xmlns="http://www.w3.org/2000/svg" width="512" height="512" viewBox="0 0 512 512"><style>.st0{fill:#010101}</style><path class="st0" d="M437 74.9C337.1-25 175-25 75 74.9S-24.9 337 75 437c99.9 99.9 262 99.9 362 0s99.9-262.1 0-362.1zm-15.1 347c-91.4 91.4-240.3 91.4-331.8 0s-91.4-240.3 0-331.8 240.3-91.4 331.8 0 91.5 240.3 0 331.8z"/><path class="st0" d="M359.6 137.8L255.8 241.5 152.4 138.3l-14.5 14.5L241.2 256 137.9 359.1l14.5 14.5 103.4-103.1 103.8 103.6 14.5-14.5L270.3 256l103.8-103.6z"/></svg>