<?xml version="1.0" encoding="utf-8"?>
<!-- Generator: Adobe Illustrator 19.2.0, SVG Export Plug-In . SVG Version: 6.00 Build 0)  -->
<!DOCTYPE svg PUBLIC "-//W3C//DTD SVG 1.1//EN" "http://www.w3.org/Graphics/SVG/1.1/DTD/svg11.dtd">
<svg version="1.1" id="Layer_1" xmlns="http://www.w3.org/2000/svg" xmlns:xlink="http://www.w3.org/1999/xlink" x="0px" y="0px"
	 width="512px" height="512px" viewBox="0 0 512 512" style="enable-background:new 0 0 512 512;" xml:space="preserve">
<path d="M465.8,272.3c-19.7,0-36.4,12.9-42.2,30.5h-36l-26.3-79c-2-6.1-7.7-10.2-14.1-10.2c-0.1,0-0.2,0-0.3,0
	c-6.5,0.1-12.1,4.4-13.9,10.8l-41.1,143.7L243.4,77.3c-1.2-6.9-6.9-13.3-14.7-13.3c-7.7,0-12.7,5.3-14.4,12.1l-56,224.8
	c0,0,0.2-0.8-0.2,0.8c-0.8,2.7-4.7,2.6-6.1,2.7C148.7,304.7,3,316.1,3,316.1l166.5,16.4c6.8,0,12.8-4.7,14.4-11.2l42-168.7l47.5,285
	c1.1,6.8,6.8,11,13.8,11.4c0.3,0,0.5,0,0.8,0c6.5,0,12.4-3.5,14.3-9.8l46-160.7l14.5,43.8c2,6,7.7,10.2,14.1,10.2h47.3
	c6.4,16.7,22.6,28.7,41.6,28.7c24.5,0,44.4-20.8,44.4-45.4C510.3,291.3,490.3,272.3,465.8,272.3z"/>
</svg>
