<?xml version="1.0" encoding="utf-8"?>
<!-- Generator: Adobe Illustrator 19.2.0, SVG Export Plug-In . SVG Version: 6.00 Build 0)  -->
<!DOCTYPE svg PUBLIC "-//W3C//DTD SVG 1.1//EN" "http://www.w3.org/Graphics/SVG/1.1/DTD/svg11.dtd">
<svg version="1.1" id="Layer_1" xmlns="http://www.w3.org/2000/svg" xmlns:xlink="http://www.w3.org/1999/xlink" x="0px" y="0px"
	 width="512px" height="512px" viewBox="0 0 512 512" style="enable-background:new 0 0 512 512;" xml:space="preserve">
<path d="M482,273c-21.3,0-39.3,14-45.6,33h-38.9l-28.4-85.4c-2.2-6.6-8.3-11-15.2-11c-0.1,0-0.2,0-0.3,0c-7,0.1-13.1,4.8-15,11.6
	l-44.5,155.3L241.8,62.4C240.5,54.9,234.3,48,226,48s-13.7,5.8-15.5,13.1L150,303.9c0,0,0.2-0.8-0.2,0.9c-0.8,2.9-5.1,2.8-6.6,2.9
	C139.4,308-18,320.3-18,320.3L162,338c7.3,0,13.8-5,15.5-12.1l45.4-182.2l51.3,307.9c1.2,7.4,7.4,11.9,14.9,12.3c0.3,0,0.6,0,0.9,0
	c7.1,0,13.4-3.7,15.4-10.6l49.7-173.6l15.7,47.3c2.2,6.5,8.3,11,15.2,11h51.1c6.9,18,24.4,31,44.9,31c26.5,0,48-22.5,48-49
	C530,293.5,508.5,273,482,273z"/>
</svg>
