<?xml version="1.0" encoding="utf-8"?>
<!-- Generator: Adobe Illustrator 19.2.0, SVG Export Plug-In . SVG Version: 6.00 Build 0)  -->
<!DOCTYPE svg PUBLIC "-//W3C//DTD SVG 1.1//EN" "http://www.w3.org/Graphics/SVG/1.1/DTD/svg11.dtd">
<svg version="1.1" id="Layer_1" xmlns="http://www.w3.org/2000/svg" xmlns:xlink="http://www.w3.org/1999/xlink" x="0px" y="0px"
	 width="512px" height="512px" viewBox="0 0 512 512" style="enable-background:new 0 0 512 512;" xml:space="preserve">
<path d="M533.3,276c-26.2,0-48.4,17.2-56.1,40.6h-47.9l-35-105.1c-2.7-8.1-10.2-13.5-18.7-13.5c-0.1,0-0.2,0-0.4,0
	c-8.6,0.1-16.1,5.9-18.5,14.3L302,403.4L237.6,16.7C236,7.5,228.4-1,218.1-1c-10.2,0-16.9,7.1-19.1,16.1L124.6,314
	c0,0,0.2-1-0.2,1.1c-1,3.6-6.3,3.4-8.1,3.6c-4.7,0.4-198.4,15.5-198.4,15.5L139.3,356c9,0,17-6.2,19.1-14.9l55.9-224.3l63.2,379
	c1.5,9.1,9.1,14.6,18.3,15.1c0.4,0,0.7,0,1.1,0c8.7,0,16.5-4.6,19-13l61.2-213.7l19.3,58.2c2.7,8,10.2,13.5,18.7,13.5H478
	c8.5,22.2,30,38.2,55.3,38.2c32.6,0,59.1-27.7,59.1-60.3C592.4,301.2,565.9,276,533.3,276z"/>
</svg>
