<svg xmlns="http://www.w3.org/2000/svg" width="512" height="512" viewBox="0 0 512 512"><path d="M465.8 272.3c-19.7 0-36.4 12.9-42.2 30.5h-36l-26.3-79c-2-6.1-7.7-10.2-14.1-10.2h-.3c-6.5.1-12.1 4.4-13.9 10.8l-41.1 143.7-48.5-290.8c-1.2-6.9-6.9-13.3-14.7-13.3-7.7 0-12.7 5.3-14.4 12.1l-56 224.8-.2.8c-.8 2.7-4.7 2.6-6.1 2.7-3.3.3-149 11.7-149 11.7l166.5 16.4c6.8 0 12.8-4.7 14.4-11.2l42-168.7 47.5 285c1.1 6.8 6.8 11 13.8 11.4h.8c6.5 0 12.4-3.5 14.3-9.8l46-160.7 14.5 43.8c2 6 7.7 10.2 14.1 10.2h47.3c6.4 16.7 22.6 28.7 41.6 28.7 24.5 0 44.4-20.8 44.4-45.4.1-24.5-19.9-43.5-44.4-43.5z"/></svg>