<svg xmlns="http://www.w3.org/2000/svg" width="500" height="500" viewBox="0 0 500 500"><path d="M250 0C112 0 0 112 0 250s112 250 250 250 250-112 250-250S388 0 250 0zm0 20c127.1 0 230 102.9 230 230S377.1 480 250 480 20 377.1 20 250 122.9 20 250 20zm127.8 80.6c-2.3.3-4.4 1.4-5.9 3.1l-110 118.8c-3.7-1.6-7.6-2.5-11.9-2.5-16.6 0-30 13.4-30 30s13.4 30 30 30c1.6 0 3.1-.4 4.7-.6l41.2 76.6c2.7 4.9 8.8 6.7 13.8 4.1s6.7-8.8 4.1-13.8L272.2 270c4.8-5.3 7.8-12.3 7.8-20 0-5-1.3-9.6-3.4-13.8l110-118.8c3.9-3.9 3.8-10.3-.1-14.1-2.3-2.2-5.5-3.2-8.7-2.7z"/></svg>