<?xml version="1.0" encoding="utf-8"?>
<!-- Generator: Adobe Illustrator 19.2.0, SVG Export Plug-In . SVG Version: 6.00 Build 0)  -->
<!DOCTYPE svg PUBLIC "-//W3C//DTD SVG 1.1//EN" "http://www.w3.org/Graphics/SVG/1.1/DTD/svg11.dtd">
<svg version="1.1" id="Layer_1" xmlns="http://www.w3.org/2000/svg" xmlns:xlink="http://www.w3.org/1999/xlink" x="0px" y="0px"
	 width="500px" height="500px" viewBox="0 0 500 500" style="enable-background:new 0 0 500 500;" xml:space="preserve">
<path d="M250,0C112,0,0,112,0,250s112,250,250,250s250-112,250-250S388,0,250,0z M250,20c127.1,0,230,102.9,230,230
	S377.1,480,250,480S20,377.1,20,250S122.9,20,250,20z M377.8,100.6c-2.3,0.3-4.4,1.4-5.9,3.1l-110,118.8c-3.7-1.6-7.6-2.5-11.9-2.5
	c-16.6,0-30,13.4-30,30s13.4,30,30,30c1.6,0,3.1-0.4,4.7-0.6l41.2,76.6c2.7,4.9,8.8,6.7,13.8,4.1s6.7-8.8,4.1-13.8L272.2,270
	c4.8-5.3,7.8-12.3,7.8-20c0-5-1.3-9.6-3.4-13.8l110-118.8c3.9-3.9,3.8-10.3-0.1-14.1C384.2,101.1,381,100.1,377.8,100.6z"/>
</svg>
