<?xml version="1.0" encoding="utf-8"?>
<!-- Generator: Adobe Illustrator 19.2.0, SVG Export Plug-In . SVG Version: 6.00 Build 0)  -->
<!DOCTYPE svg PUBLIC "-//W3C//DTD SVG 1.1//EN" "http://www.w3.org/Graphics/SVG/1.1/DTD/svg11.dtd">
<svg version="1.1" id="Layer_1" xmlns="http://www.w3.org/2000/svg" xmlns:xlink="http://www.w3.org/1999/xlink" x="0px" y="0px"
	 width="512px" height="512px" viewBox="0 0 512 512" style="enable-background:new 0 0 512 512;" xml:space="preserve">
<style type="text/css">
	.st0{fill:#010101;}
</style>
<g>
	<g>
		<path class="st0" d="M437,74.9C337.1-25,175-25,75,74.9S-24.9,337,75,437c99.9,99.9,262,99.9,362,0S536.9,174.9,437,74.9z
			 M421.9,421.9c-91.4,91.4-240.3,91.4-331.8,0s-91.4-240.3,0-331.8s240.3-91.4,331.8,0C513.4,181.5,513.4,330.4,421.9,421.9z"/>
	</g>
	<polygon class="st0" points="359.6,137.8 255.8,241.5 152.4,138.3 137.9,152.8 241.2,256 137.9,359.1 152.4,373.6 255.8,270.5 
		359.6,374.1 374.1,359.6 270.3,256 374.1,152.4 	"/>
</g>
</svg>
