<?xml version="1.0" encoding="utf-8"?>
<!-- Generator: Adobe Illustrator 20.0.0, SVG Export Plug-In . SVG Version: 6.00 Build 0)  -->
<!DOCTYPE svg PUBLIC "-//W3C//DTD SVG 1.1//EN" "http://www.w3.org/Graphics/SVG/1.1/DTD/svg11.dtd">
<svg version="1.1" id="Layer_1" xmlns="http://www.w3.org/2000/svg" xmlns:xlink="http://www.w3.org/1999/xlink" x="0px" y="0px"
	 viewBox="0 0 612 293.3" style="enable-background:new 0 0 612 293.3;" xml:space="preserve">
<style type="text/css">
	.st0{fill:#39414C;}
	.st1{fill:#3A414C;}
	.st2{fill:#E1E2E4;}
	.st3{fill:#E0E1E3;}
	.st4{fill:#3A424D;}
	.st5{fill:#DADBDD;}
	.st6{fill:#CACCCE;}
	.st7{fill:#BCBABB;}
	.st8{fill:#CDCDCE;}
	.st9{fill:#C0BEBF;}
	.st10{fill:#D64141;}
	.st11{fill:#FFFFFF;}
</style>
<g>
	<path class="st0" d="M389.1,214.8c-0.1-1.8,0.2-3.6-0.2-5.4c-0.4-2.1-1.6-3.3-3.7-3.8c-6.9-1.6-13.7-3.2-20.6-4.7
		c-1.7-0.4-3.2-0.1-4.4,1.3c-0.7-0.3-0.6-0.9-0.6-1.4c-0.1-2.7,0.2-5.3,0.2-8c-0.1-8.4-0.3-16.9-0.2-25.3c0-3.1-2.5-5.5-5.6-5.5
		c-12.2,0-24.4,0-36.5,0c-0.6,0-1.2,0.1-1.8-0.3c-0.4-0.5-0.3-1.1-0.3-1.6c0.1-6-0.2-11.9-0.3-17.8c-0.1-7.4-0.3-14.8-0.5-22.3
		c-0.1-3.6,0-7.2-0.2-10.8c-0.3-7.6-0.3-15.2-0.5-22.7c-0.1-3.6,0-7.1-0.2-10.7c-0.3-7.5-0.3-15-0.5-22.5c-0.1-3.6,0.1-7.3-0.2-10.9
		c-0.4-4.5,0.1-9.1-0.4-13.6c-0.2-1.9,0-3.7,0.8-5.4c1.7-3.3,4.1-4.5,8-3.7c9.4,1.7,18.7,3.5,28.1,5.3c12.7,2.4,25.4,4.8,38.1,7.1
		c12.8,2.4,25.5,4.8,38.3,7.2c13.6,2.5,27.2,5.1,40.7,7.6c13.2,2.5,26.3,5,39.5,7.4c12.3,2.3,24.6,4.6,36.9,6.9
		c7.1,1.3,14.1,2.7,21.2,4c1,0.2,2,0.2,3,0.4c3.5,0.7,5.7,3.8,6,7.9c0.6,8.4,1.6,16.8,2.4,25.2c0.8,8,1.6,16,2.4,24
		c0.9,8.7,1.8,17.5,2.6,26.2c0.6,6.4,1.3,12.7,1.9,19.1c0.7,7.3,1.5,14.6,2.2,21.8s1.4,14.5,2.1,21.7c0.3,3.2,0.6,6.4,0.9,9.6
		c-0.3,0.4-0.7,0.3-1.2,0.3c-4.4-0.1-8.8-0.2-13.2-0.4c-6-0.2-12-0.2-17.9-0.6c-2.6-0.2-5.2-0.1-7.8-0.2c-4-0.1-8-0.2-11.9-0.3
		c-5.9-0.2-11.8-0.2-17.7-0.6c-2.6-0.2-5.2-0.1-7.8-0.2c-3.9-0.1-7.8-0.2-11.7-0.3c-6-0.2-12-0.2-18.1-0.6c-2.6-0.2-5.2-0.1-7.7-0.2
		c-3.8-0.1-7.7-0.2-11.5-0.3c-6.1-0.2-12.3-0.3-18.4-0.6c-2.6-0.2-5.3-0.1-8-0.2c-4.1-0.1-8.1-0.2-12.2-0.3
		c-5.8-0.2-11.7-0.3-17.5-0.6c-4-0.2-7.9-0.4-11.9-0.3c-1.2,0-2.3-0.2-3.5-0.3C389.6,215.2,389.3,215.1,389.1,214.8z"/>
	<path class="st1" d="M277.1,277.8c-0.4,0-0.8,0-1.3,0c-48.9,0-97.8,0-146.7,0c-1.7,0-1.8-0.1-1.4-1.7c2.9-14.7,5.9-29.5,8.8-44.2
		c3-15,6-30,9-45c1.8-9.2,3.7-18.3,5.5-27.5c0.7-3.5,2.9-5.4,6.4-5.9c9.8-1.3,19.5-2.7,29.3-4c8.6-1.2,17.2-2.3,25.8-3.5
		c8-1.1,16.1-2.2,24.1-3.3c8.6-1.2,17.1-2.3,25.7-3.5c8.1-1.1,16.2-2.2,24.3-3.3c5.1-0.7,10.3-1.4,15.4-2.1c1.6-0.2,3,0.1,4.2,1.3
		c1,1.4,1.3,2.9,1,4.5c-1.1,6.8-2.3,13.7-3.4,20.5c-0.3,1.5-0.4,1.7-2,1.7c-6.2,0-12.4,0.1-18.7,0c-3,0-5.7,2.7-5.7,5.7
		c0,36.1,0,72.2,0,108.3C277.4,276.6,277.6,277.3,277.1,277.8z"/>
	<path class="st2" d="M389.1,214.8c4.7,0.2,9.4,0.3,14.1,0.5c9.2,0.3,18.5,0.6,27.7,0.9c6.6,0.2,13.2,0.4,19.8,0.6
		c10.1,0.3,20.2,0.6,30.3,0.9c7.4,0.2,14.8,0.5,22.3,0.7c10.1,0.3,20.2,0.6,30.3,0.9c7.4,0.2,14.8,0.5,22.3,0.7
		c10.1,0.3,20.2,0.6,30.3,0.9c0.6,0,1.2,0.1,1.8,0.1c0.5,4.2,1,8.4,1.3,12.5c0.2,2.4,0.7,4.9,0.5,7.3c-0.1,1.7-0.6,3.4-2.1,4.4
		c-1.4,0.9-3,1.5-4.6,1.7c-0.6,0.1-1.2,0.4-1.9,0.2c-0.4-0.5-1-0.3-1.5-0.3c-10.8,0-21.5,0-32.3,0c-22.7,0-45.4,0.2-68-0.1
		c-29.4-0.3-58.7,0-88.1-0.2c-0.7,0-1.5,0.2-2.2-0.4C389.1,235.8,389.1,225.3,389.1,214.8z"/>
	<path class="st3" d="M389.1,246.3c25.6,0,51.1-0.1,76.7,0c26.8,0.2,53.6,0.1,80.4,0.2c11.3,0,22.5,0,33.8,0c0.5,0,1.2-0.3,1.2,0.7
		c-22.5,0-45,0-67.5,0c-17.7,0-35.4,0-53.1,0c-0.5,0-1-0.2-1.4,0.2s-0.9,0.4-1.4,0.3c-1.3-0.2-2.6-0.2-4-0.2c-15,0-30,0-45,0
		c-2.6,0-2.3-0.1-3.1,2.3c-0.3,0.9-0.6,1.8-0.7,2.7c-0.1,0.6,0.1,0.9,0.7,1c0.3,0,0.7,0,1,0c2.1,0,4.2,0,6.4,0
		c13.3-0.1,26.7,0.4,40,0.2c1.4,0,2.8,0.3,4.2,0.2c0.3,0,0.7,0.1,0.9,0.3c-0.3,2.2-0.2,4.4,0,6.5c0.3,3.1,0.8,6.1,2.6,8.8
		c1.5,2.1,3.4,3.4,6,3.8c3.6,0.6,7.1,1.3,10.7,1.9c4.3,0.7,8.6,1.5,12.9,2.2c3.9,0.7,7.7,1.3,11.6,1.9c1.7,0.3,3.4,0.5,5.1,1
		c1.4,0.4,1.6,0.9,1,2.3c-1.6,1.3-3.5,1.1-5.3,1.1c-4.7,0-9.5,0.2-14.2,0.3c-6.5,0.1-13,0.3-19.5,0.4c-6.7,0.2-13.4,0.3-20.1,0.5
		c-4.2,0.1-8.5,0.1-12.7,0.2c-5.5,0.2-10.9-0.5-16.2-2.1c-4.7-1.4-9.4-2.9-14.1-4.4c-1.5-0.5-2.7-1.3-4-2.1
		c-1.8-1.8-2.2-4.2-2.1-6.6c0.1-2.7,0.3-5.5,0.8-8.2c0.8-4.4,1.7-8.8,3-13.1c0.5-1.7,0.4-1.7-1.3-1.7c-4.1,0-8.2,0-12.3,0
		C389.4,247.2,388.9,247.1,389.1,246.3z"/>
	<path class="st4" d="M360.4,242.2c0-10.9,0-21.8,0-32.6c0-1,0.3-1.2,1.2-1c7.4,1.5,14.9,3,22.3,4.5c1.2,0.2,2.4,0.5,3.7,0.7
		c0.6,0.1,0.9,0.4,0.8,1.1c-0.1,2.8,0,5.7,0,8.5c0,17.3,0,34.5,0,51.8c0,1.1-0.3,1.3-1.3,1.3c-8.6-0.2-17.3-0.3-25.9-0.5
		c-1,0-0.8-0.5-0.8-1.1C360.4,263.9,360.4,253,360.4,242.2z"/>
	<path class="st5" d="M277.1,277.8c0-36.6,0-73.2,0-109.8c0-3.7,2.8-6.6,6.5-6.5c6.2,0.2,12.4,0,18.5,0.1c0.8,0,1.1-0.2,1.2-1
		c1.1-7,2.3-14,3.5-21c0.3-1.5,0.1-3-0.6-4.4c1.5,1.4,1.6,3.3,1.3,5.1c-0.8,4.9-1.6,9.7-2.4,14.5c-0.3,2-0.6,3.9-1,5.9
		c-0.2,0.9,0.2,0.9,0.8,0.9c3,0,6.1,0,9.1,0c0.6-0.5,1.3-0.4,1.9,0c12.6,0,25.3,0,37.9,0c3.8,0,6.2,2.4,6.2,6.3c0,2.3,0.1,4.6,0,6.9
		c-0.1,4.2-0.1,8-0.1,12.4c-0.1,3,0.1,6.1,0,9.3c-0.1,1.6,0,3,0.1,4.7c0,0.4-0.2,0.8,0.2,1c0,0.2-0.1,0.3-0.2,0.4
		c-0.4,0.3-0.8,0.5-1-0.2c-0.1-0.7-0.1-1.4-0.1-2c0-10.7,0-21.3,0-32c0-1-0.1-2.1-0.6-3c-0.8-1.5-2-2.4-3.8-2.6
		c-0.5-0.1-1.1-0.1-1.6-0.1c-23.1,0-46.2,0-69.3,0c-1.7,0-3.1,0.3-4.3,1.6c-0.7,0.8-1.2,1.8-1.2,2.9c0,0.4,0,0.8,0,1.3
		c0,36.6,0,73.1,0,109.7c0,1.7,0.3,3.2,1.7,4.4c0.8,0.7,1.8,1.2,2.9,1.2c0.5,0,1.1,0,1.6,0c22.7,0,45.4,0,68.2,0
		c2.1,0,4-0.1,5.5-1.8c0.1-0.1,0.3-0.2,0.4-0.2c0.6-0.1,0.8,0.2,0.7,0.8c-1,0.4-1.6,1.2-2.2,2c-0.7,0.6-1.6,0.5-2.4,0.5
		c-4.7,0-9.5,0-14.2,0c-19.2,0-38.4,0-57.5,0c-0.9,0-1.8,0.1-2.6-0.5c-0.2-0.9-0.8-1.1-1.6-1.1c-1.5,0-3,0.4-4.5,0.7
		c-0.3,0.3-0.7,0.5-1.2,0.6c-3.2,0.3-6.3,0.7-9.5,0.7c-77.6,0-155.2,0-232.9,0c-2.3,0-4.6-0.2-6.9-0.6c-0.2,0-0.4-0.1-0.6,0
		c-1.2-0.8-2.7-0.7-4-1.1c-1.4-0.4-2.7-0.8-4.1-1.6c0.6-0.4,1.1-0.3,1.6-0.3c76.5,0,153.1,0,229.6,0c7.6,0,15.2,0,22.9,0
		c1.6,0,1.6-0.1,1.6-1.6c0-1.6,0-1.6,1.7-1.6c1.4,0,2.7,0,4.1,0C276.8,278.6,277.1,278.5,277.1,277.8z"/>
	<path class="st6" d="M458.2,254.4c-9.3-0.4-18.6,0-27.8-0.3c-8.2-0.3-16.4,0-24.7-0.2c-1.5,0-1.6-0.1-1.2-1.4
		c0.4-1.5,0.9-3,1.2-4.5c0.2-0.9,0.8-0.9,1.5-0.9c9.8,0,19.6,0,29.3,0c5.8,0,11.7,0,17.5,0c1.7,0,3.3,0.2,5,0.3
		C458.8,249.8,458.5,252.1,458.2,254.4z"/>
	<path class="st3" d="M315.8,161.6c-0.6,0-1.3,0-1.9,0c0-6.1-0.1-12.2-0.3-18.3c-0.1-4.2,0.1-8.4-0.2-12.6
		c-0.3-4.5,0.1-8.9-0.2-13.4c-0.2-3.8,0-7.5-0.2-11.2c-0.3-4.9,0-9.8-0.3-14.6c-0.2-4.3,0.1-8.6-0.2-12.9c-0.3-4.5,0.1-8.9-0.2-13.4
		c-0.3-4.3,0.1-8.6-0.2-12.8c-0.3-4.5,0-8.9-0.2-13.4c-0.2-2.9-0.2-5.8-0.1-8.6c0.1-2.4,0.4-4.9,1.8-7c-0.8,2.9-0.3,5.9-0.3,8.8
		c0.1,6.1,0.2,12.2,0.3,18.3c0.2,11.4,0.5,22.9,0.7,34.3c0.1,6.9,0.3,13.9,0.5,20.8c0.2,11.6,0.5,23.1,0.7,34.7
		C315.5,147.2,315.7,154.4,315.8,161.6z"/>
	<path class="st7" d="M22.9,284.7c0.4-0.4,1-0.2,1.4-0.2c7.7,0.8,15.4,0.4,23.2,0.4c71.8,0,143.7,0,215.5,0c3.7,0,7.3-0.4,10.9-0.9
		c0.1,0.9-0.6,1.1-1.3,1.1c-3,0.3-6,0.5-9.1,0.5c-71,0-142,0-213,0c-7.1,0-14.3,0-21.4,0C27.1,285.6,24.9,285.4,22.9,284.7z"/>
	<path class="st8" d="M359,282.5c-0.1-0.3-0.2-0.5-0.4-0.7c-0.4-0.3-0.5-0.8-0.5-1.3c-0.1-0.5-0.1-0.9-0.1-1.4c0-24.1,0-48.2,0-72.2
		c0-1,0.1-2,0.4-2.9c0.2-0.5,0.3-0.9,0.9-1.1c0.3,0,0.3-0.5,0.7-0.2c-0.4,1-0.5,2.1-0.5,3.2c0,24.6,0,49.2,0,73.7
		c0,1.3,0.3,2.5,1,3.7c0.7,1,1.6,1.5,2.9,1.5c7.4,0,14.7,0,22.1,0c1,0,1.9-0.3,2.9-0.2c0.3,0,0.6,0.1,0.6,0.4c0,0.4-0.4,0.3-0.6,0.3
		c-2.1,0-4.2,0-6.4,0c-7.1,0-14.3,0-21.4,0c-0.3,0-0.5,0-0.8,0c-0.2,0-0.6,0.1-0.7-0.3c0-0.3,0.3-0.4,0.6-0.4c0.2,0,0.5,0,0.8,0
		C359.9,283.8,359.1,283.4,359,282.5z"/>
	<path class="st5" d="M83.3,277.9c3.2,0,6.4,0,9.7,0c1.2,0,1.4,0.3,0.9,1.4c-0.5,1-1.1,1.4-2.3,1.4c-5.6-0.1-11.2,0-16.8,0
		c-0.8,0-1.4-0.2-1.9-0.8c-0.4-0.5-0.6-1-0.4-1.6s0.9-0.3,1.3-0.3C77,277.9,80.1,277.9,83.3,277.9z"/>
	<path class="st9" d="M402,276.8c0.1-0.2,0.3-0.2,0.5-0.1c1.6,1.5,3.7,2.1,5.7,2.7c5.6,1.7,11.2,3.7,16.9,5c2.4,0.5,4.8,0.8,7.3,0.8
		c4.2,0.1,8.3,0.2,12.5,0c3.7-0.2,7.5,0,11.2-0.2c2.9-0.2,5.8,0,8.6-0.2c3.7-0.2,7.4,0,11.1-0.3c3-0.2,6.1,0,9.1-0.2
		c3.1-0.3,6.3,0,9.4-0.2c2.7-0.2,5.4,0,8.1-0.2c1.9-0.1,3.9,0,5.7-0.9c-0.4,0.7-1.1,1-1.9,1.1c-1.1,0.1-2.1,0.2-3.2,0.2
		c-4.8,0.1-9.5,0.1-14.3,0.3c-6.5,0.2-12.9,0.3-19.4,0.5c-3.2,0.1-6.4,0-9.5,0.2c-3.6,0.2-7.2,0-10.8,0.2c-4.5,0.3-9.1,0.1-13.6,0.2
		c-4.8,0.1-9.6-0.4-14.2-1.8c-5.5-1.7-11.1-3.2-16.5-5.2C403.7,278.2,402.7,277.6,402,276.8z"/>
	<path class="st9" d="M280,284.5c25.6,0.4,51.2,0.4,76.7,0c0.3,0,0.5,0,0.8,0.3c-0.4,0.5-1,0.4-1.5,0.4c-4.2,0-8.3,0-12.5,0
		c-20.6,0-41.2,0-61.8,0c-0.6,0-1.2,0.1-1.8-0.2c-0.2-0.1-0.5,0-0.4-0.4C279.6,284.5,279.8,284.5,280,284.5z"/>
	<path class="st10" d="M405.4,135.2c6,0.4,11.9,0.1,17.8,0.4c3.7,0.2,7.4,0.1,11,0.1c1.4,0,2.9,0.1,4.3,0.2c0.9,0.1,1.3-0.3,1.5-1.2
		c1.4-7.8,2.7-15.6,4.1-23.4c1.1-6.4,2.2-12.7,3.4-19.1c0.5-2.7,0.9-5.4,1.4-8c0.5-2.5,2.7-3.3,4.7-1.6c1,0.8,1.4,1.9,1.7,3.1
		c2.8,13.1,5.6,26.2,8.4,39.3c2,9.3,4,18.6,6,27.9c0,0.1,0.1,0.2,0.2,0.6c0.3-1.6,0.6-3,0.9-4.4c1.8-9.1,3.5-18.2,5.3-27.3
		c0.2-1.2,0.6-2.2,1.9-2.6c1.2-0.3,2.6,0.3,3.4,1.5c0.7,0.9,0.9,2,1.3,3c1.9,5.2,3.8,10.5,5.6,15.7c0.3,0.8,0.6,1.1,1.4,1.1
		c1.8,0.1,3.5,0.3,5.3,0.5c0.6,0.1,0.9-0.1,1.1-0.7c1.8-4.8,5.9-6.4,10.5-4.4c5.1,2.3,8,9.2,6,14.4c-2.1,5.3-8.2,6.5-12.6,2.5
		c-1.3-1.2-2.5-2.6-3.2-4.2c-0.2-0.6-0.6-0.8-1.2-0.8c-2.7-0.2-5.4-0.5-8-0.7c-2-0.2-3.2-1.3-3.9-3.2c-1-2.9-2.1-5.8-3.1-8.7
		c-0.1-0.3-0.2-0.6-0.5-1.2c-0.6,2.9-1.1,5.6-1.6,8.3c-1.4,7.4-2.8,14.7-4.2,22.1c-0.3,1.8-0.7,3.6-1.1,5.3c-0.4,1.9-1,2.7-2.4,2.8
		c-1.8,0.1-3.3-0.9-3.8-2.6c-0.5-2-0.9-4.1-1.3-6.1c-2.9-13.4-5.7-26.7-8.6-40.1c-1.5-7-3-13.9-4.4-20.9c0-0.1,0-0.3-0.3-0.4
		c-0.3,2-0.7,3.9-1,5.8c-1.3,7.2-2.5,14.3-3.7,21.5c-0.6,3.3-1.2,6.7-1.7,10.1c-0.3,2.2-1.6,3.1-3.9,2.7
		c-11.9-2.4-23.9-4.8-35.8-7.2C406,135.5,405.7,135.5,405.4,135.2z"/>
	<path class="st10" d="M179.9,221.9c2.7-0.5,5.5-0.9,8.2-1.4c3.2-0.5,6.4-1.1,9.6-1.6c0.6-0.1,0.9-0.4,1-0.9
		c2.1-5.8,4.2-11.5,6.3-17.3c2-5.4,4-10.9,6.1-16.3c0.4-1.1,0.8-2.1,1.2-3.2c0.1-0.3,0.3-0.6,0.5-0.9c0.5-0.7,1.2-1.3,2.1-1
		c0.9,0.3,0.9,1.2,0.9,2c-0.3,6.8-0.6,13.5-1.1,20.3c-0.2,2.3-0.2,4.7-0.3,7c-0.3,4.9-0.6,9.7-0.8,14.6c-0.1,1.5,0,3.1-0.1,4.7
		c0.6-1.5,1.2-3,1.9-4.5c2.5-6.4,5.1-12.7,7.6-19.1c0.3-0.9,0.8-1.7,1.8-1.9c1.1-0.3,1.8,0.3,1.9,1.5c0.2,2.3,0.4,4.5,0.5,6.8
		c0.1,1.8,0.3,3.6,0.4,5.4c0,0.5,0.2,0.7,0.7,0.6c1.2-0.1,2.5-0.2,3.7-0.2c0.5,0,0.6-0.5,0.7-0.8c0.8-1.5,1.8-2.7,3.2-3.6
		c3.4-2.4,7.4-0.7,7.8,3.5c0.3,4-1.3,7.3-4.7,9.5c-3.1,2.1-6.2,0.9-7.2-2.7c-0.2-0.6-0.4-0.9-1.1-0.8c-1.6,0.1-3.3,0.2-4.9,0.3
		c-1.4,0.1-1.9-0.4-2.1-1.8c-0.1-1.6-0.2-3.2-0.3-4.8c0-0.5,0-1-0.3-1.7c-0.5,1.2-0.9,2.2-1.4,3.3c-3,7.6-6.1,15.3-9.1,22.9
		c-0.2,0.6-0.5,1.2-1.1,1.6c-0.5,0.4-1.1,0.6-1.8,0.3s-0.9-0.9-0.9-1.6c0.1-2.3,0.2-4.5,0.3-6.8c0.1-2,0.3-4,0.4-6
		c0.4-7.8,0.8-15.7,1.2-23.5c0.2-3.2,0.4-6.5,0.5-9.8c-0.5,1.2-0.9,2.4-1.4,3.7c-2.9,7.9-5.8,15.8-8.7,23.7
		c-0.6,1.5-1.8,2.2-3.4,1.9c-2.2-0.4-4.4-0.4-6.7-0.6c-3.8-0.3-7.5-0.5-11.3-0.8C179.9,222,179.9,222,179.9,221.9z"/>
	<path class="st10" d="M378,245.5c-0.5,2.1-1,4.2-1.4,6.2c-0.1,0.4,0,1-0.6,0.9c-0.5-0.1-0.5-0.6-0.5-1c-0.5-3.8-0.9-7.7-1.4-11.5
		c0-0.2-0.2-0.4-0.3-0.8c-0.4,2.3-0.9,4.4-1.2,6.5c-0.2,0.9-0.5,1.2-1.4,1c-1.4-0.3-2.7-0.6-4.2-1c0.8-0.6,1.6-0.2,2.3-0.2
		c2.3,0,2.2,0,2.6-2.2c0.5-2.6,1-5.2,1.6-7.8c0.1-0.3,0-0.7,0.5-0.8c0.5,0,0.6,0.4,0.6,0.8c0.3,2,0.5,4,0.7,5.9
		c0.3,2.3,0.6,4.6,1.1,6.9c0.4-1.8,0.8-3.6,1.2-5.4c0.1-0.4,0.2-0.9,0.6-0.9s0.5,0.4,0.6,0.8c0.2,0.9,0.5,1.7,0.6,2.6
		c0.1,0.4,0.1,0.7,0.6,0.7c0.4,0,0.8,0.1,1.1-0.4c0.3-0.6,0.8-1,1.6-0.6c0.8,0.4,1.3,1.6,1.1,2.5c-0.2,0.7-0.5,1.3-1.3,1.4
		c-0.6,0.1-1-0.3-1.2-0.8c-0.2-0.4-0.5-0.8-1-0.7c-1.2,0.2-1.5-0.5-1.6-1.5C378.3,245.9,378.3,245.6,378,245.5z"/>
	<path class="st11" d="M359.2,202.8c-0.6,1.2-0.9,2.5-0.9,3.8c0,24.3,0,48.5,0,72.8c0,0.8,0.3,1.6,0.2,2.4c-0.3,0.3-0.7,0.6-1,0.9
		c-0.9,0.9-2,1.4-3.4,1.4c-23.8,0-47.6,0-71.3,0c-2.8,0-5.1-2.2-5.1-5c0-37.2,0-74.5,0-111.7c0-2.7,2.3-5,5-5c23.7,0,47.5,0,71.2,0
		c2.9,0,5.2,2.3,5.2,5.2C359.2,179.3,359.2,191,359.2,202.8z"/>
	<path class="st4" d="M356.5,223.4c0,16.3,0,32.6,0,48.9c0,1-0.2,1.3-1.2,1.3c-24.5,0-48.9,0-73.4,0c-1,0-1.2-0.3-1.2-1.3
		c0-32.6,0-65.2,0-97.9c0-1,0.2-1.3,1.3-1.3c24.4,0,48.9,0,73.3,0c1.1,0,1.3,0.3,1.3,1.3C356.5,190.8,356.5,207.1,356.5,223.4z"/>
	<path class="st10" d="M322.2,233.8c0.6-2.1,1.2-4.1,1.8-6.2c0.7-2.4,1.4-4.8,2.1-7.2c0.2-0.7,0.6-1.2,1.4-1.3
		c0.9,0,1.3,0.5,1.6,1.2c0.7,2.1,1.4,4.2,2.1,6.3c0.3,0.9,0.7,1.4,1.7,1.2c0.1,0,0.3,0,0.5,0c1.1,0.1,1.9-0.1,2.6-1.2
		c1.1-1.7,3.3-2.2,5.2-1.4c1.7,0.7,2.7,2.3,2.6,4.4c-0.1,1.8-1.5,3.4-3.3,3.9c-1.9,0.5-3.7-0.3-4.8-2c-0.3-0.6-0.7-0.7-1.3-0.7
		c-1.1,0-2.3,0-3.4,0c-1,0-1.5-0.4-1.8-1.3c-0.4-1.2-0.8-2.4-1.3-3.9c-0.9,3.1-1.7,5.8-2.5,8.6c-0.6,2.2-1.3,4.4-1.9,6.6
		c-0.2,0.9-0.6,1.6-1.7,1.5c-1-0.1-1.3-0.8-1.5-1.7c-1.5-8.8-2.9-17.6-4.4-26.4c0-0.1-0.1-0.3-0.3-0.3c-1.3,5.2-2.6,10.4-3.9,15.6
		c-0.3,1.3-0.8,1.6-2.1,1.5c-4.7-0.5-9.5-0.9-14.2-1.4c-0.2,0-0.4-0.1-0.5-0.3c1.3-0.1,2.6-0.2,3.9-0.3c3.2-0.2,6.3-0.5,9.5-0.7
		c0.8,0,0.9-0.5,1-1.1c1.7-6.8,3.4-13.7,5.1-20.5c0-0.2,0.1-0.4,0.1-0.5c0.2-0.8,0.6-1.4,1.5-1.4s1.3,0.7,1.5,1.5
		c0.3,1.5,0.5,3,0.7,4.5c1.3,7.7,2.6,15.5,3.9,23.2C322,233.8,322.1,233.8,322.2,233.8z"/>
</g>
</svg>
