<svg xmlns="http://www.w3.org/2000/svg" width="500" height="500" viewBox="0 0 50 50" style="fill: rgb(102, 102, 102);">
    <path style="text-indent:0;text-align:start;line-height:normal;text-transform:none;block-progression:tb;-inkscape-font-specification:Bitstream Vera Sans" d="M 25 0 C 11.204726 0 0 11.204726 0 25 C 0 38.795274 11.204726 50 25 50 C 38.795274 50 50 38.795274 50 25 C 50 11.204726 38.795274 0 25 0 z M 25 2 C 37.714394 2 48 12.285606 48 25 C 48 37.714394 37.714394 48 25 48 C 12.285606 48 2 37.714394 2 25 C 2 12.285606 12.285606 2 25 2 z M 37.78125 10.0625 A 1.0001 1.0001 0 0 0 37.1875 10.375 L 26.1875 22.25 C 25.821712 22.091199 25.424187 22 25 22 C 23.343146 22 22 23.343146 22 25 C 22 26.656854 23.343146 28 25 28 C 25.163983 28 25.311911 27.962816 25.46875 27.9375 L 29.59375 35.59375 A 1.0138205 1.0138205 0 0 0 31.375 34.625 L 27.21875 27 C 27.698244 26.468256 28 25.772386 28 25 C 28 24.501888 27.871072 24.038432 27.65625 23.625 L 38.65625 11.75 A 1.0001 1.0001 0 0 0 37.78125 10.0625 z" color="#000" overflow="visible" enable-background="accumulate" font-family="Bitstream Vera Sans"/>
</svg>